<svg id="圖層_1" data-name="圖層 1" xmlns="http://www.w3.org/2000/svg" viewBox="0 0 206.14 387.35"><defs><style>.cls-1{fill:#68a2dc;}.cls-2{fill:#fcf9f7;}.cls-3{fill:#7eadda;}</style></defs><title>taiwan_1</title><path class="cls-1" d="M213.83,39.82a5.32,5.32,0,0,1-4-3.59,6.74,6.74,0,0,0-6-4.43,16.35,16.35,0,0,1-5.69-1.44,18.21,18.21,0,0,0-6.75-1.81c-4.92-.28-8.11-3.12-10.59-7-.49-.79-.92-1.41-1.76-1.48-3-.22-4.62-1.71-5.6-4.72s-3.11-4.94-6.7-4.26a10.35,10.35,0,0,1-1.47.08,18,18,0,0,0-2.16,1.06c-3,1.84-5.69,4-8.55,6A10.91,10.91,0,0,0,150,24.47a6.65,6.65,0,0,1-3.85,4.39,61.31,61.31,0,0,1-5.69,2.5c-.48.18-1.19.18-1.17,1s.76.81,1.34,1l.47.11c3.19.66,5.1,3,7,5.33a2.92,2.92,0,0,1,.54,1.54,8.84,8.84,0,0,1-5.48,8.85,5.19,5.19,0,0,0-2.51,1.45c-1.13,2.18,0,3.93,1.21,5.55a9,9,0,0,1,2.06,4.56,3.18,3.18,0,0,0,2.84,2.94,8,8,0,0,0,3.9,0c2.66-.74,2.82-.66,3.18,2.14a7.58,7.58,0,0,1,.08.82,24.85,24.85,0,0,0,3.86,11.72c.65,1.06,1.42,2.15,2.86,1.63a66.44,66.44,0,0,0,10.41-4.43,2.74,2.74,0,0,0,1.52-2.87c-.49-3.3,1.16-5.24,3.89-6.67a60.32,60.32,0,0,0,6.84-4.17A8.65,8.65,0,0,1,186.4,60,17.43,17.43,0,0,0,192,54.71c.46-.69,1-1.54,2-1.19,2.37.87,3.53-.48,4.69-2.17,2.79-4.07,7-5.68,11.63-6.68a3,3,0,0,1,1.78.16c1.9.76,3.51.16,5.06-.91C217.15,41.49,216.49,40.43,213.83,39.82Zm-34.48,3.61c-.51.78-1.14.34-1.75.17a3.66,3.66,0,0,0-4.33,2.27c-.33.91-.07,1.36.9,1.36s1.62.15,1.65,1.15-.21,1.88-1.31,2.21a2.75,2.75,0,0,1-1.26.24c-3.23-.85-6.63-1.52-8-5.16-.61-1.6-1.46-2.05-3.12-1.53s-2.05.06-2.21-1.58A7.92,7.92,0,0,1,161,38.18c1.05-2,.68-3-1.37-3.86-3.53-1.57-3.6-1.73-2.17-5.35.24-.6.54-1.17.81-1.76a9.07,9.07,0,0,1,4-2.05c.78-.11,1.08-.79,1.4-1.46A4.86,4.86,0,0,1,168.38,21a3.08,3.08,0,0,1,3.15,2.38,5.46,5.46,0,0,0,2.22,3.29,2.49,2.49,0,0,1,.9,2.92c-.11.56-.37,1.06,0,1.56a2.25,2.25,0,0,1,.81,2.43,6.73,6.73,0,0,0,2.39,6.58,8,8,0,0,1,1.19,1.13A1.71,1.71,0,0,1,179.35,43.43Z" transform="translate(-10.92 -10.97)"/><path class="cls-1" d="M115.61,398.33c-.13-2.23-.69-4.11-3-5.22a18.76,18.76,0,0,1-3.11-2.4c-1.32-1-2-.79-2.32.88-.19,1-.31,1.94-.47,2.91a.93.93,0,0,1-.83.88,1.07,1.07,0,0,1-1.09-.57,1.59,1.59,0,0,1-.15-.29c-1.41-4.1-4.31-7.31-6.93-10.66a5.07,5.07,0,0,1-.91-5.35,29.75,29.75,0,0,0,1.22-4.24,5.88,5.88,0,0,0-.69-4.7c-2.51-3.9-5.33-7.61-7.24-11.88-.48-1.06-1.65-1.42-2.53-2.05-2.62-1.82-4.6-4.32-7.08-6.28-3.36-2.73-6.09-6.15-9.68-8.61-2.1-1.13-4.2-2.21-5.33-4.53-.42-.87-1.13-.94-1.69,0-1.46,1.37-2.12,1.4-4.38.31-.54-.24-1.19-.3-1.59-.84a2.45,2.45,0,0,1-.34-1.79c1.84-3.7,2.47-7.77,3.56-11.7a2.44,2.44,0,0,0,.07-2.17c-.4-.69-1.1-1.13-1.37-1.91s-.44-1.42-.68-2.14c-.26-6.34-.16-12.69,0-19,0-2,1.11-2.92,3.11-3.15a15.12,15.12,0,0,1,2.13-.06,9.22,9.22,0,0,0,9.35-5.84,2.87,2.87,0,0,1,3.75-1.8,5.1,5.1,0,0,0,4.11-.46,2.36,2.36,0,0,1,3.22.58c1.85,1.91,2.39,2,4.71.8a3.12,3.12,0,0,1,3.66.38,7.85,7.85,0,0,1,.84.79c2,1.91,2.3,1.88,3.9-.28,2.63-2.88,4.61-4.16,8.21-.11,1,1.11,2.25,1.9,3.29,3a6.75,6.75,0,0,1,2,3.65,23.71,23.71,0,0,1,0,2.92,5.91,5.91,0,0,1-3.87,4.87c-1.6.68-3.26,1.25-4.83,2.05a6.62,6.62,0,0,0-3.86,4.93A35.59,35.59,0,0,1,96.42,317a13.42,13.42,0,0,0,0,11.24,32.86,32.86,0,0,1,1.54,4.3,37.69,37.69,0,0,1,1.43,6.91,4.3,4.3,0,0,1,.13,1c0,1.2-.37,2.43.23,3.59a2.13,2.13,0,0,0,1.37,1.31,3.64,3.64,0,0,1,2.53,3.17c.3,3.42,2.24,5.19,5.28,6.16.36.11.73.24,1.09.38a16.34,16.34,0,0,0,6.6,1.77c1.92.17,2,.41,2.36,2.41a40.82,40.82,0,0,1,0,9.31c-.19,2.23.13,4.37,1.91,6a1.51,1.51,0,0,1,.17,2.42c-2.41,2.57-2.82,5.79-3,9.1s.44,6.84-.32,10.26a5.36,5.36,0,0,1-.69,2Z" transform="translate(-10.92 -10.97)"/><path class="cls-1" d="M198,119.86c.95,2.9.1,5-2.49,6.71-2.15,1.37-4.07,3.12-6.16,4.62-1.08.77-1.43,1.46-.68,2.7,1.47,2.36.79,4.79-.26,7.05a16.34,16.34,0,0,0-1.63,8.59,3.61,3.61,0,0,0,.14,1.13c1,2.09.29,3.89-.75,5.73-2.54,4.47-3.33,9.45-3.9,14.43-1.17,10.3-2.88,20.52-4.41,30.78a6.63,6.63,0,0,1-1.16,3.38c-1.5,1.82-1.36,3.69-.35,5.64.22.44.44.88.68,1.33a3.67,3.67,0,0,1-.33,4.14,1.77,1.77,0,0,1-2.27-.15c-.87-.76-1.61-1.86-2.86-1.66a7.64,7.64,0,0,0-4.2,1.66,12.65,12.65,0,0,1-2,1.11c-1.79,1-1.85,1.18-.88,2.94.22.6.45,1.2.62,1.82,0,2.53-1.24,4.72-1.87,7.08-.17.48-.33,1-.47,1.45q-3.1,9-5.47,18.15a3.42,3.42,0,0,1-1.17,1.91c-1.88,1.15-3.63.31-5.28-.51a33.73,33.73,0,0,1-8.1-5.54,2.65,2.65,0,0,0-2.82-.79,2.67,2.67,0,0,1-2.33-.47c-3.32-2.22-6.91-4-10.4-5.92-2.22-1.22-3.5-2.91-3.21-5.55a11.45,11.45,0,0,0,0-1.31c.09-1.27-.59-1.87-1.76-2.17-1.6-.41-3.33-.23-4.78-1.37-.31-.22-.85-.25-.91-.79a1.69,1.69,0,0,1,.76-1.85,12.85,12.85,0,0,1,3-1.18c2.17-.62,2.17-.62,1.37-2.68a2,2,0,0,1,0-1.88c.3-.44.77-.85.94.13a2.16,2.16,0,0,0,.2,1.37c.14.5.61.81.76,1.29.07.2,0-.06,0,.15.07,0,0-.08,0-.13-.13-.48-.62-.74-.68-1.24a1.76,1.76,0,0,1-.27-1.32,3.84,3.84,0,0,1,.8-1.75,27.67,27.67,0,0,0,3-4.79,2.57,2.57,0,0,1,2.47-1.77c1.26.41,2.38-.13,3.53-.5a2.31,2.31,0,0,0,1.67-2.33c.12-2.53,1.08-4.39,3.64-5.25a3.29,3.29,0,0,0,2-2.67c.94-3.94,1.58-7.93,2.52-11.86.42-1.7-.5-2.93-1.73-4-3-2.65-3-2.78-.82-6.16a26.73,26.73,0,0,0,3.73-7.62,17.79,17.79,0,0,0,1.25-6.41,5.66,5.66,0,0,0-1.41-3.74c-1.41-1.63-1.47-2.55-.42-4.47a27.78,27.78,0,0,1,3.24-4.74c1.95-2.27,3.49-4.66,2.58-7.88a1.69,1.69,0,0,1,.23-1.26,5.25,5.25,0,0,1,3.43-1.75c1.31-.15,1.53-.68,1.06-1.93a8.33,8.33,0,0,0-.76-1.45,18,18,0,0,1-2.64-7.18,5.23,5.23,0,0,1,1.62-4.91,52.84,52.84,0,0,0,6.67-7.43c1.3-1.7,1.78-1.53,3.94-1.11,4.4.85,8.45,2.91,12.91,3.56a6.81,6.81,0,0,0,5.83-1.36c1.72-1.48,3.36-2.21,5.47-.89a3.27,3.27,0,0,0,1.93.17,28.84,28.84,0,0,1,7.18.46C197,117.88,197.89,118.43,198,119.86Z" transform="translate(-10.92 -10.97)"/><path class="cls-1" d="M169.78,252.87a6,6,0,0,1-.42,5.05c-4.87,8-9.58,16.17-14.7,24-2.86,4.35-6.54,8.17-9.84,12.23a34.79,34.79,0,0,0-3.36,3.82,13,13,0,0,1-1.61,1.79c-4.38,5.09-9,10-12.43,15.82-.88.79-1,2-1.24,3a82.38,82.38,0,0,1-3.42,10.38c-1,2.54-1.16,5.33-1.94,7.95-.42,1-.61,2.17-1,3.24-1.48,1.77-1.29,3.9-1.31,6,0,2.6-.37,5.2-.35,7.82,0,1.36-.53,1.77-1.82,1.64a12.42,12.42,0,0,1-5.61-1.52c-1-.6-2.29-.38-3.08-1.37a23.77,23.77,0,0,1-1.94-3.3,22.42,22.42,0,0,1-1.8-4.22c-1.65-5.92-4.23-11.49-6.49-17.18a13.43,13.43,0,0,1,.06-10.78,50.31,50.31,0,0,0,2.47-8.32,4.63,4.63,0,0,1,3-3.58c1.68-.64,3.27-1.54,5-2.05,5.63-1.67,6.2-10.31,1.92-13.48-.62-.45-1.2-1-1.79-1.44a7,7,0,0,1-2.51-4.1,19.6,19.6,0,0,0-2.43-6.75c-1-1.61-.5-3.56,1.37-5.47a6.72,6.72,0,0,0,2.32-4c.12-1.52.27-3,.41-4.56.36-3.81.49-7.63.76-11.44.37-5.3,3.65-9.13,7.47-12.47a21.87,21.87,0,0,1,5.39-3.42,2.19,2.19,0,0,1,2.59.28,31.52,31.52,0,0,0,6.78,4.28c1.88,1,3.75,2.05,5.56,3.17,1.25.78,2.46,1.62,4.11,1.06.68-.24,1.24.29,1.71.75a36.37,36.37,0,0,0,7.82,5.38,7.08,7.08,0,0,0,5.69.83c1.07-.22,1.11-1.25,1.53-2,1-2.58,1.53-5.32,2.33-8,1.1-3.63,2.27-7.25,3.37-10.89a6.29,6.29,0,0,0,.88-2.51c.69-2.21,2-4.27,1.75-6.73-.2-.63-.44-1.24-.65-1.86-.25-2.13,1.43-2.74,2.84-3.53a15.13,15.13,0,0,1,2.29-.9c2.92-.79,5.22,1.1,5.94,4,1.14,4.59-.74,8.59-1.83,12.75a57.72,57.72,0,0,1-4,11.05c-1.07,2.14-.82,4.45-.35,6.71C169.46,250.94,169.65,251.9,169.78,252.87Z" transform="translate(-10.92 -10.97)"/><path class="cls-1" d="M32.53,298.54l-3.29-6.6c-.42-.94-1-1.8-1.37-2.74a3,3,0,0,1,.63-3.59,1.8,1.8,0,0,1,1.95.18,5,5,0,0,0,2.25.74c1.42.08,2.84,0,4.25,0a6.07,6.07,0,0,1,2.84.62c2.94,1.47,5.75.34,8.56-.44.77-.22,1.11-1,1.44-1.71a2.46,2.46,0,0,1,2.88-1.61c1.36.27,2.23-.42,2.18-1.69-.13-3.31,1.47-5,4.6-5.61a2.47,2.47,0,0,0,.68-.41c.62-.31,1.2-.77,1.14-1.47-.24-3.28,2.06-5.16,4-7.18,2.88-3.05,5.91-6,8.9-8.93a8.15,8.15,0,0,0,2.74-5.25c.08-1.29.93-2.44,1-3.77.62-1.52,1.42-3,2-4.49,1.17-3.22,3.61-5.14,6.65-6.38a13.05,13.05,0,0,0,6.73-5.69c1.8-3.11,4.85-5,7.83-6.84,2.33-1.45,4.65-2.87,6.25-5.19a2.25,2.25,0,0,1,2-.93c3.18,0,6.34,0,9.51,0a4.54,4.54,0,0,1,1,.14c.89.24,1.73.62,1.84,1.63s-.91,1.21-1.64,1.51a12.25,12.25,0,0,1-2.21.6c-1.07.23-1.81.77-1.82,2a2.46,2.46,0,0,0,1.67,2.7,25.91,25.91,0,0,0,2.91.46c2.11.45,2.46.89,2.15,3-.18,1.18.23,2.64-1.37,3.2-5.71,2.33-9.78,6.48-12.82,11.71a10.62,10.62,0,0,0-1.36,5c-.13,3-.42,6-.78,9a46.83,46.83,0,0,0-.18,4.74,9,9,0,0,1-2.51,6.22c-2.37,2.51-2.61,4.34-1,7.39a13.1,13.1,0,0,1,1.57,4.63c.1.85-.2,1.54-1.16,1.26-2.45-.69-3.78.84-5.13,2.36s-1.9,1.76-3.58.8c-.34-.28-.64-.6-1-.89a3.46,3.46,0,0,0-4.34-.62c-2.35,1.2-2.54,1.14-4.33-.85-1-1.08-2-1.45-3.3-.62a6.07,6.07,0,0,1-4.43.68c-2.35-.41-3.3.21-4.1,2.41-1.26,3.29-4.2,5.25-8.1,5.34a10.39,10.39,0,0,0-4.35.58,2.75,2.75,0,0,0-1.76,1.8,30.24,30.24,0,0,0-.12,5.21c0,5.18-.14,10.34.1,15.51.14,1.47,1.2,2.53,1.74,3.82a9.78,9.78,0,0,1,.1,1.87c-.8,3.6-1.27,7.3-3.12,10.6-.9,1.61-1.53,1.84-3.12,1.19-3.84-2.58-6.84-6-10-9.39a61.06,61.06,0,0,1-5.91-7.42c-1.65-2.42-1.56-3,.55-4.92a1.55,1.55,0,0,0,.49-2,13.53,13.53,0,0,0-1.37-2.43,41.18,41.18,0,0,1-4.72-7.82A5.51,5.51,0,0,0,32.53,298.54Z" transform="translate(-10.92 -10.97)"/><path class="cls-1" d="M206.24,53.49a69.54,69.54,0,0,0-5.08,12.39,4.16,4.16,0,0,0,0,1.79c.39,3,.84,5.94,1.11,8.89a8.84,8.84,0,0,0,2.32,5.3c1.42,1.58,2.85,3.16,4.35,4.69a2.4,2.4,0,0,1,.63,3.08,16.7,16.7,0,0,0-3.38,7.87,41.35,41.35,0,0,1-5.07,12.58,57.34,57.34,0,0,0-3,5.31,2.39,2.39,0,0,1-2.92,1.52,34.28,34.28,0,0,0-7.83-.57,5.41,5.41,0,0,1-2.24-.45,3.75,3.75,0,0,0-4.28.69c-2.55,2.54-5.55,2.46-8.56,1.51s-6.07-1.83-9.15-2.61c-1.75-.45-3.25-1.59-5.06-1.87a5.93,5.93,0,0,0-4.23-.21,6.36,6.36,0,0,1-7.9-4.53,3.1,3.1,0,0,1,.75-2.86c1.93-2.64,4-5.19,6.07-7.69A10.75,10.75,0,0,0,155,93.84a18.55,18.55,0,0,0,.53-2.65A22.91,22.91,0,0,1,157,86.68a11,11,0,0,1,8.34-7.52,26.55,26.55,0,0,0,5.27-2.23,7,7,0,0,0,3.2-2.94,2.93,2.93,0,0,0,.25-2.48,4.31,4.31,0,0,1,0-2.05,2.92,2.92,0,0,1,1.32-1.61c3.1-2,6.47-3.67,9.35-6a4.14,4.14,0,0,0,2.42-1.61,14.58,14.58,0,0,0,5.77-4.48,1.55,1.55,0,0,1,1.53-.75,4.24,4.24,0,0,0,4.5-2.39c2-3.83,5.95-4.75,9.34-6.52a.88.88,0,0,1,.32-.07c.74,0,1.69-.37,2.13.37s-.32,1.31-.78,1.82A32.25,32.25,0,0,0,206.24,53.49Z" transform="translate(-10.92 -10.97)"/><path class="cls-1" d="M53.81,138.27c2.8-4,4.26-8.67,5.88-13.22a55.67,55.67,0,0,1,4.11-9.4.78.78,0,0,1,.89.22C67,118,70,119.29,72.51,121.21a17.88,17.88,0,0,0,7,3,4.64,4.64,0,0,0,3.57-.78,33.36,33.36,0,0,1,7-3.52c2.23.82,4.63,1.28,6.32,3.21a2.5,2.5,0,0,0,2.42.69,7.08,7.08,0,0,1,3.86.43,7.26,7.26,0,0,0,4.2.3,3.66,3.66,0,0,1,3.21.76c1.88,1.44,3.62,1.41,5.54-.1a5.45,5.45,0,0,1,3.73-1.41,2.31,2.31,0,0,0,2-1.11,5.17,5.17,0,0,1,3.15-2.19,10.32,10.32,0,0,0,2.32-1.23,32.57,32.57,0,0,1,5.58-2.77,7.87,7.87,0,0,0,4.17-3.27c.49-.69.6-1.58,1.24-2.18a14.72,14.72,0,0,1,4.34-1.36,2.75,2.75,0,0,1,3.12,1.26c2,3.39,4.87,4.52,8.63,3.61a7.23,7.23,0,0,1,1.14,0c.73.06,1.66-.22,2,.68s-.31,1.45-.77,2.06a38.08,38.08,0,0,1-6.39,7,4.13,4.13,0,0,0-1.37,3.21,16.6,16.6,0,0,0,1.79,8.21c1.3,2.61,1.3,2.61-1.15,4.28-.17.13-.34.27-.5.42a2.15,2.15,0,0,1-.68.44,2.82,2.82,0,0,1-1.55.07,39.48,39.48,0,0,0-7.53-.17,4.49,4.49,0,0,1-4.7-2.79,14.2,14.2,0,0,0-5-5.35,2,2,0,0,0-2.44-.06,21,21,0,0,1-6.84,3.42,2,2,0,0,0-1.31,1.18,4.07,4.07,0,0,1-2.92,2.39,3.72,3.72,0,0,0-1.43.79,2.54,2.54,0,0,1-3,.59,1.66,1.66,0,0,0-2.24.73v0a3.5,3.5,0,0,1-4.63,1.58,3.55,3.55,0,0,0-4.66,1.62c-.72,1.21-1.5,1.51-2.95.88-3.12-1.37-5.24-.1-6.42,3.46A8,8,0,0,0,88.3,154a7.62,7.62,0,0,1-2.64,4.41,1.56,1.56,0,0,1-1,.54c-3.72,0-7.52.51-10.85-1.9-2.46-1.22-4.24-3.34-6.4-5-1.44-1.09-3.3-1.44-4.79-2.52-.57-.43-1.2-.77-1.75-1.22a9.84,9.84,0,0,0-3.19-2.38,2.55,2.55,0,0,1-1.74-2.05,4.5,4.5,0,0,0-.09-2c-.1-.93-.14-1.89-1.11-2.42C54.32,139.15,53.74,139,53.81,138.27Z" transform="translate(-10.92 -10.97)"/><path class="cls-1" d="M64.41,113.94c-.07-1.43,1-2.38,1.58-3.52,2.3-4.34,4.51-8.74,7-13a40.21,40.21,0,0,1,6.46-7.58,7.18,7.18,0,0,1,4.17-1.74A5.8,5.8,0,0,0,88,85a30,30,0,0,1,4.94-6.27c.87-1.11,1.66-.63,2.4.15.59.61.85,1.51,1.71,1.88,2,.48,3.67,1.63,5.6,2.24a7.56,7.56,0,0,1,2.83,1.9,59,59,0,0,0,9.23,7c2.16,1.37,4.87,1.57,7.29,2.37,2.06.69,4.11,1.15,6.16,1.65a6.3,6.3,0,0,1,3.14,1.68c1.75,1.8,3.33,3.77,4.89,5.72s.69,4.32,0,6.42a10,10,0,0,1-1.72,3,106.75,106.75,0,0,1-12.16,8,6.58,6.58,0,0,0-1.62,1.09,2.52,2.52,0,0,1-2.39.78,3.47,3.47,0,0,0-3.23,1.2c-1.79,1.74-3.2,1.76-4.87,0a2.48,2.48,0,0,0-2.49-.84,8.48,8.48,0,0,1-4.52-.28,5.09,5.09,0,0,0-2.92-.05,3.77,3.77,0,0,1-3.85-1.22c-.19-.2-.39-.38-.59-.57-2.42-2.38-3.35-2.54-6.4-1.15-1.28.72-2.52,1.51-3.85,2.15-1.05.5-2.05,1-3.25.54a1,1,0,0,0-.94.08,2,2,0,0,1-2.29-.15,5.2,5.2,0,0,0-3.11-.83c-1.37.09-2.37-.68-3.52-1.16a18.11,18.11,0,0,1-7.2-5.11C65,114.87,64.47,114.55,64.41,113.94Z" transform="translate(-10.92 -10.97)"/><path class="cls-1" d="M96.58,63.69a8.54,8.54,0,0,0,7.28,3,2.34,2.34,0,0,1,2.3,1.57,9.3,9.3,0,0,1,.57,1.86c.12.69.8,1.5.09,2s-1.08-.5-1.62-.83a2.51,2.51,0,0,0-2.35,0c-3.42,1.25-4.91,4-5.67,7.28a.77.77,0,0,1-.93.18c-.74-.84-1.32-2-2.78-1.15-.46.26-.76-.1-.69-.58.2-.89,0-1.86.49-2.73.21-1.37.48-2.68.6-4a13.78,13.78,0,0,1,1.36-5.8C95.57,63.93,95.88,63.43,96.58,63.69Z" transform="translate(-10.92 -10.97)"/><path class="cls-2" d="M56.14,143.81a1.62,1.62,0,0,1,0-1.93A1.62,1.62,0,0,1,56.14,143.81Z" transform="translate(-10.92 -10.97)"/><path class="cls-1" d="M73.84,158a9.68,9.68,0,0,0,6.24,2c1.78,0,3.57-.4,5.34.27.69.27,1.21-.24,1.54-.89,1.9-3.73,3-7.84,5.09-11.47.1-.18-.07-.51-.11-.77a9.81,9.81,0,0,1,3-.63,2.06,2.06,0,0,1,2.18,1.13c.73,1.41,1.44.8,2,0,.49-.64.83-1.41,1.29-2,1.09-1.58,2.12-2,3.93-1.37,2.2.74,4.1.53,5.42-1.61a1.11,1.11,0,0,1,1.47-.58,1.15,1.15,0,0,1,.33.21,1.47,1.47,0,0,0,2.07-.14.94.94,0,0,0,.09-.12,5.11,5.11,0,0,1,2.06-1.37c1.69-.64,3.42-1.19,3.9-3.27a1.2,1.2,0,0,1,1-.72,15.6,15.6,0,0,0,6.12-3,1.71,1.71,0,0,1,2.41.05l0,0a18.81,18.81,0,0,1,4.83,5.69c.54,1.1,1.8,1.23,2.48,2.1a88.14,88.14,0,0,1,10.15.1h0a5.8,5.8,0,0,1-.48,7.45,27.24,27.24,0,0,0-4.6,6.7c-1.05,2.18-1,2.95.75,4.63A4.58,4.58,0,0,1,143.7,164c0,1.87-.75,3.6-.83,5.48a51.88,51.88,0,0,1-5.47,10c-1.15,1.67-1,2.36.56,3.55.18.13.37.24.55.36,2.33,1.48,3.5,3.22,2.5,6.26a98.69,98.69,0,0,0-2.27,10c0,1.43-1.14,1.79-2.18,2.23-2.74,1.19-3.43,2.21-3.31,5.07.08,1.5-.8,2-2.05,2.17a12.72,12.72,0,0,0-4.39,1c-.85,0-1.23.69-1.51,1.32a34.6,34.6,0,0,1-3.06,5.22,4.91,4.91,0,0,1-4.23,2.37c-5.21.23-10.34-.9-15.54-.72a2,2,0,0,1-1.68-.9,45,45,0,0,0-4.44-5,2.29,2.29,0,0,1-.69-2.05c.42-2.74-.56-4.6-3.12-5.59-2.4-.93-4.79-1.7-6.67-3.65-1.07-1.1-2.66-.87-4-.12-2.59,1.43-5.29,1-8,.56-.77-.14-1-.68-1-1.43a22.5,22.5,0,0,1,.69-6.46c.68-2.16.24-4.4.87-6.58.26-.91.49-1.36,1.46-1.58a3.24,3.24,0,0,0,2.36-3.9,1.53,1.53,0,0,0-2.2-1.23c-2.36.69-2.46.65-3.59-1.45a3.12,3.12,0,0,0-1.84-1.61,2.31,2.31,0,0,1-1.7-2.64c.15-2,.26-4.11.39-6.21a4.89,4.89,0,0,0-.42-2.56c-1.22-2.45-1.37-5.15-2-7.73-.2-.74,0-1.08.72-1.31,1.68-.51,3.29-.81,4.79.46A2.15,2.15,0,0,0,73.84,158Z" transform="translate(-10.92 -10.97)"/><path class="cls-1" d="M73.19,249.6c.42.38.92.25,1.41.26,1.91,0,2.24.5,1.76,2.4-.82,3.22-2.9,5.58-5.28,7.71-3.46,3.1-6.58,6.52-9.77,9.88-.85.89-.48,2-.82,3.09a17.92,17.92,0,0,0-.38,1.91c-.86.35-1.71.72-2.59,1-2.8.95-3.57,1.9-3.59,4.89,0,1.37-.25,1.93-1.78,1.5S50,283,49.33,284c-1.61,2.62-6.75,4-9.4,2.38a4.72,4.72,0,0,0-3.35-.75,8.22,8.22,0,0,1-4.37-.28,12.68,12.68,0,0,1-2.29-1.24c-1.05-.6-1.62,0-2.05.87-1.65,1.43-1.69,1.41-3-.33a62,62,0,0,0-8.24-8.89c-3-2.76-4-6-4.22-9.88-.08-1.45.26-3.12-1.17-4.23a5.69,5.69,0,0,1,0-3.86,76.09,76.09,0,0,0,2.9-14.72c.09-1,.56-1.37,1.56-1.48,2.29-.19,4.29.69,6.32,1.48,3,1.17,3.43,1.06,5.09-1.58.69-1.1,1.55-1.56,2.74-.89a1.24,1.24,0,0,0,1.62-.07,1.2,1.2,0,0,0,.3-1.5c-.53-1.1,0-1.86.68-2.65a33.44,33.44,0,0,1,8.1-6.6,6,6,0,0,1,4.87-.72,8.23,8.23,0,0,0,5.47-.35c1.88-.78,3.47-.79,4.75,1a1.55,1.55,0,0,0,1.21.76c1.69,1.68,3,3.76,5.08,5,.87.53.75,1.46,0,2.1-1.11,1-1,2.05-.29,3.2a61.51,61.51,0,0,1,4.18,8.31c.39.94.91,1.81,2.14,1.64s2.48-.2,2.67-1.84c0-.37.18-.8.62-.85s.42.44.59.69A1.5,1.5,0,0,0,73.19,249.6Z" transform="translate(-10.92 -10.97)"/><path class="cls-1" d="M57.2,229.52l-.29-.39c-1.66-2.42-3.68-3.06-6.41-1.61a7.64,7.64,0,0,1-5,.3,8.06,8.06,0,0,0-5.65,1.07,35.09,35.09,0,0,0-8.59,7,.4.4,0,0,0-.1.12c-.69,1.64-1.19,3.28-3.58,3.24-.88,0-1.29,1.36-1.81,2.2a1.81,1.81,0,0,1-2.4.88l-.07,0c-2.44-.89-4.72-2.34-7.49-2.06-.61.07-.77-.52-.76-1.05,0-1,.09-2,.13-3.11A8.65,8.65,0,0,0,15.6,232a18.41,18.41,0,0,1,.12-4.07,55.06,55.06,0,0,0-.18-6.55c-.06-.83-.6-1.93.59-2.46s2.7-1,4.07-.09c.27.18.5.41.78.6,2.33,1.62,4.18,1.09,5.41-1.56.18-.39.28-.82.44-1.22A3.52,3.52,0,0,1,31,214.3c2.18.38,3,0,3.9-2,.35-.74.73-1.47,1.05-2.22.47-1.08.9-1.82,2.23-.81.85.64,1.65-.1,2.29-.72a38.67,38.67,0,0,1,5.42-4.47,11.25,11.25,0,0,1,9.25-1.43A2.91,2.91,0,0,1,57,203.87a6.2,6.2,0,0,0,1.74,1.72,7.24,7.24,0,0,0,6.58,1.82,55.15,55.15,0,0,1,11.91-.24c1.83.13,3.71-.51,5.47.29,1.5.43,2-.28,2-1.67a5.18,5.18,0,0,1,.09-1.47c.19-.69.63-1.23,1.43-.73,1.75,1.08,3.75,1.5,5.62,2.24,2.24.88,2.92,2,2.48,4.46a2.81,2.81,0,0,0,1,2.79,17.13,17.13,0,0,1,3.19,3.5,5.93,5.93,0,0,0,6,2.82c.59-.06,1.42-.45,1.77.31s-.45,1.25-.87,1.77a8.53,8.53,0,0,1-2.31,1.83,18.67,18.67,0,0,0-2,1.29c-1.59,1.07-3.19,2.12-4.79,3.21a9.67,9.67,0,0,0-3.42,3.51c-1.53,3.18-4.24,4.91-7.21,6.4-.78.4-1.56.77-2.34,1.18a7.36,7.36,0,0,0-3.73,4.15,27.79,27.79,0,0,1-1.48,3.12c-1.12,2.19-2,2.65-4.47,2.36-.82-.1-.87-.68-1.06-1.24-.54-1.58-1.06-1.7-2.18-.42a12.47,12.47,0,0,0-1.07,1.64,2,2,0,0,1-1.61,1c-.84,0-.77-.74-1-1.25-1.29-2.48-2.32-5.08-3.85-7.42a2.06,2.06,0,0,1,0-2.68c1.26-1.72,1.13-2.43-.56-3.66C60.45,233.07,59.1,231,57.2,229.52Z" transform="translate(-10.92 -10.97)"/><path class="cls-1" d="M19.47,194.77a1.86,1.86,0,0,0,.93-1.34,13.86,13.86,0,0,0,1.65-2.93l1.58-2.74a.85.85,0,0,0,.09-.24,6.6,6.6,0,0,0,1.51-2c.26-.42.55-.81.8-1.24a2,2,0,0,1,3.13-.76,7.3,7.3,0,0,0,6.92.43,18.34,18.34,0,0,1,14.3-.18c2.95,1.18,6.22,1.07,9.36,1.37,3.69.34,7.4.5,11.1.68,1.54.08,2.22.82,2.06,2.3q-.5,4.11-1.1,8.26a22.3,22.3,0,0,0-.12,4.9c.07,1.11.5,1.94,1.9,1.41a2.27,2.27,0,0,1,1.43.2,8.25,8.25,0,0,0,6.51-.49,4.39,4.39,0,0,1,3.1-.34c-.39.83-.94,1.48-.87,2.35.14,1.57-.63,2.12-2.09,1.7a5.91,5.91,0,0,0-2.74.07c-5.12,1-10.37,0-15.5,1a3.26,3.26,0,0,1-3.16-1.37,23.61,23.61,0,0,1-2-2.53,3.18,3.18,0,0,0-3.74-2.21,18.46,18.46,0,0,1-4.07,0,5.69,5.69,0,0,0-4,1.08c-2.27,1.62-4.72,3-6.54,5.17a1.16,1.16,0,0,1-1.6.3l-.13-.1c-1.32-.92-2.16-.24-2.79.89s-1.13,2.23-1.69,3.36a1.78,1.78,0,0,1-2.15,1,5.53,5.53,0,0,0-6,3.31,8.54,8.54,0,0,1-.84,1.65,1.66,1.66,0,0,1-2.66.49c-.52-.39-1.08-.74-1.63-1.1a2.53,2.53,0,0,0-3.16,0c-1.48,1-1.89.69-2-1.08C14.44,208.49,16.36,201.51,19.47,194.77Z" transform="translate(-10.92 -10.97)"/><path class="cls-1" d="M37.47,162.92a54.2,54.2,0,0,0,10.26-16,35.57,35.57,0,0,1,3-6c.42-.69.76-1.67,1.79-1.32a2.64,2.64,0,0,1,2,2.17c.08.58,0,1.19.07,1.79A3.47,3.47,0,0,0,57,146.91a7,7,0,0,1,3.71,2.82,1.61,1.61,0,0,0,1.42,1c1.46,1.2,3.33,1.64,4.94,2.55.63.35,1.37.68,1.29,1.52s-.87,1.06-1.55,1.21c-1.37.28-1.66.68-1.31,2.34.93,4.42,3.37,8.59,2.56,13.36-.17,1-.31,2.05-.42,3.07a3.09,3.09,0,0,0,2,3.55,4.27,4.27,0,0,1,2.26,2.05,2.86,2.86,0,0,0,3.69,1.56c.56-.15,1.18-.61,1.52.23a1.55,1.55,0,0,1-.61,2,3.93,3.93,0,0,1-2.48.72c-3.42-.39-6.89,0-10.26-.47-5.94-.79-12-1.09-17.71-3-2.51-.86-5.08-.17-7.53.61-1.24.4-2.51.74-3.72,1.22-2,.81-3.73.06-5.48-.87-.78-.43-.85-.91-.28-1.56a15.15,15.15,0,0,0,3.09-6.1C33.16,170.39,35.44,166.71,37.47,162.92Z" transform="translate(-10.92 -10.97)"/><path class="cls-1" d="M153.4,92.92a1.61,1.61,0,0,1-.23,2c-2.85,3.49-5.61,7.06-8.43,10.58a8.33,8.33,0,0,1-6.15,3.52c-1-.61-.64-1.5-.49-2.35a4.9,4.9,0,0,0-2.4-5.4c-.46-.29-.68-1-1-1.46A11.53,11.53,0,0,0,127,94.5c-4.68-1-9.38-2-13.58-4.6A31.8,31.8,0,0,1,107.32,85a13.06,13.06,0,0,0-7.43-3.84c-.85-.13-1.09-.46-1-1.27a8.54,8.54,0,0,1,2.64-6c1.45-1.37,2.68-1.28,4.32.17.82.74,1.59,2.06,2.88,1.08s.92-2.28.36-3.55a9.16,9.16,0,0,1-.53-1.71c-.76-3.46-2.8-5.16-6.29-5.24-2.44-.05-3.38-.8-4-3.21A17.62,17.62,0,0,0,103,56a3.41,3.41,0,0,1,4-1.59c4.16,1,8.21,2.19,11.59,5,1.75,1.46,2.81,3.47,4.22,5.2a9,9,0,0,0,3.37,3,.77.77,0,0,1,.92.42,5.85,5.85,0,0,0,4.6,1.6c.73,1.06,2,.93,3,1.36s1.86.62,2.74,1c1.82.87,2.34,1.95,2.05,4a33.45,33.45,0,0,0-.62,5.18A3.25,3.25,0,0,0,140,83.75a43.27,43.27,0,0,0,10.33,7.36A34,34,0,0,1,153.4,92.92Z" transform="translate(-10.92 -10.97)"/><path class="cls-1" d="M146.87,43a6.26,6.26,0,0,1-4.6,5.05c-3.17,1-4.31,3.94-2.69,6.93A10.32,10.32,0,0,0,141,57a6.22,6.22,0,0,1,1.63,3.69c.27,2.52,1.11,3.43,3.53,4.11a7.49,7.49,0,0,0,4.79.17c1.28-.49,1.81.25,1.79,1.37a23.25,23.25,0,0,0,2.6,10.38,6.15,6.15,0,0,0,.81,1.41c1.5,1.83,1.67,3.64.32,5.54a11.85,11.85,0,0,0-2.53,5.58c-.13,1.2-1.06.81-1.77.47a47.93,47.93,0,0,1-6.79-4.29,1.79,1.79,0,0,0-.26-.2c-3.78-1.84-4.57-4.7-3.42-8.66,1-3.42-.68-5.84-4.05-6.93-2.17-.68-4.38-1.3-6.56-1.94-4-.87-6.12-3.91-8.33-6.9-3.69-5-8.89-7.32-14.85-8.21-.54-.08-1.15-.08-1.36-.68s.23-1,.58-1.41a32.83,32.83,0,0,1,9.19-7.25,38.06,38.06,0,0,0,7.13-4.93c3.78-3.42,8.32-4.55,13.22-4.79,1.78.64,3.64,1,5.36,1.81C145.24,36.86,147.73,38.85,146.87,43Z" transform="translate(-10.92 -10.97)"/><path class="cls-3" d="M75,121.61c.59-.16.87,0,1.05.41C75.57,122.31,75.25,122.11,75,121.61Z" transform="translate(-10.92 -10.97)"/><path class="cls-1" d="M177.35,41.6A6.29,6.29,0,0,0,172.87,44c-1.68,2.22-1.52,3.19,1,5.09-.15.48-.58.47-.92.42-3-.52-5.44-1.84-6.74-4.63-.78-1.7-1.78-2.53-3.64-2.19-1.42.24-1.77-.34-1.36-1.65a11,11,0,0,1,1.05-2.56c1.17-1.92.88-3.26-1-4.56-.22-.15-.48-.26-.69-.41-.89-.6-2.68-.35-2.54-1.86a5.35,5.35,0,0,1,2.8-4.55,6.86,6.86,0,0,1,2-.62A2.13,2.13,0,0,0,165,24.75a2.9,2.9,0,0,1,2.49-2.1,2.18,2.18,0,0,1,2.58,1.19,12.18,12.18,0,0,0,3.12,4.36.69.69,0,0,1,.29.92l-.05.09c-.69,1.05-.22,1.93.26,2.9a5.05,5.05,0,0,1,.59,2.35A8.89,8.89,0,0,0,177.35,41.6Z" transform="translate(-10.92 -10.97)"/></svg>