<svg id="圖層_1" data-name="圖層 1" xmlns="http://www.w3.org/2000/svg" viewBox="0 0 301.32 566.19"><defs><style>.cls-1{fill:#68a2dc;}.cls-2{fill:#fcf9f7;}.cls-3{fill:#7eadda;}</style></defs><title>taiwan</title><path class="cls-1" d="M297.7,42.9c-3.09-.71-4.7-2.4-5.89-5.24a9.83,9.83,0,0,0-8.72-6.48,24,24,0,0,1-8.32-2.1,26.35,26.35,0,0,0-9.87-2.65C257.71,26,253,21.87,249.42,16.22c-.71-1.15-1.34-2.06-2.57-2.15-4.44-.33-6.76-2.5-8.19-6.9S234.12-.06,228.87.94a15.41,15.41,0,0,1-2.15.12,26.35,26.35,0,0,0-3.16,1.54c-4.34,2.69-8.31,5.91-12.49,8.81a16,16,0,0,0-6.67,9.06,9.75,9.75,0,0,1-5.63,6.41,90.28,90.28,0,0,1-8.31,3.66c-.71.26-1.74.26-1.71,1.39s1.11,1.18,1.95,1.41l.7.16c4.65,1,7.45,4.4,10.25,7.8a4.3,4.3,0,0,1,.79,2.24,12.93,12.93,0,0,1-8,12.94,7.61,7.61,0,0,0-3.68,2.12c-1.65,3.19-.07,5.75,1.78,8.12a13.12,13.12,0,0,1,3,6.66c.28,2.55,1.83,3.8,4.15,4.3a11.74,11.74,0,0,0,5.71,0c3.89-1.09,4.12-1,4.65,3.13a11.69,11.69,0,0,1,.11,1.19,36.22,36.22,0,0,0,5.65,17.13c.94,1.55,2.07,3.15,4.18,2.38,5.21-1.91,10.4-3.71,15.21-6.47a4,4,0,0,0,2.22-4.2c-.72-4.82,1.69-7.65,5.69-9.75a89.51,89.51,0,0,0,10-6.09,12.7,12.7,0,0,1,4.5-2.64,25.39,25.39,0,0,0,8.11-7.7c.67-1,1.51-2.24,2.85-1.74,3.46,1.28,5.16-.69,6.86-3.16,4.07-5.95,10.29-8.31,17-9.77a4.37,4.37,0,0,1,2.6.23c2.77,1.12,5.13.24,7.39-1.32C302.55,45.35,301.59,43.8,297.7,42.9Zm-50.39,5.28c-.75,1.14-1.68.5-2.56.25a5.36,5.36,0,0,0-6.34,3.31c-.48,1.33-.1,2,1.32,2,1.23,0,2.37.21,2.41,1.67s-.3,2.75-1.91,3.24a3.91,3.91,0,0,1-1.85.34c-4.71-1.24-9.68-2.22-11.7-7.53-.89-2.35-2.14-3-4.56-2.24s-3,.08-3.23-2.31a11.61,11.61,0,0,1,1.59-6.41c1.54-2.93,1-4.31-2-5.64-5.16-2.29-5.27-2.53-3.18-7.82.35-.88.79-1.71,1.19-2.57,1.82-1.28,3.54-2.69,5.87-3,1.15-.16,1.59-1.15,2-2.13,1.37-2.85,4-3.85,6.86-3.91a4.53,4.53,0,0,1,4.6,3.48,8,8,0,0,0,3.25,4.81c1.51,1,1.73,2.61,1.32,4.27-.17.82-.55,1.55.06,2.29a3.28,3.28,0,0,1,1.19,3.55,9.82,9.82,0,0,0,3.5,9.62,11.17,11.17,0,0,1,1.73,1.64C247.6,46,248.06,47,247.31,48.18Z" transform="translate(-1.11 -0.74)"/><path class="cls-1" d="M154.13,566.93c-.18-3.26-1-6-4.34-7.62-1.69-.81-3-2.32-4.54-3.51-1.93-1.52-2.9-1.16-3.39,1.29-.28,1.4-.45,2.83-.69,4.24a1.37,1.37,0,0,1-1.21,1.3,1.56,1.56,0,0,1-1.6-.84,2.1,2.1,0,0,1-.22-.42c-2.06-6-6.29-10.69-10.13-15.59a7.44,7.44,0,0,1-1.33-7.82,41.79,41.79,0,0,0,1.78-6.2,8.53,8.53,0,0,0-1-6.86c-3.67-5.7-7.8-11.13-10.59-17.37-.69-1.54-2.4-2.08-3.69-3-3.83-2.65-6.73-6.31-10.35-9.17-4.91-4-8.91-9-14.15-12.59-3.07-1.65-6.14-3.23-7.79-6.62-.61-1.27-1.65-1.38-2.47,0-2.14,2-3.1,2.05-6.4.45-.8-.35-1.75-.43-2.33-1.22a3.61,3.61,0,0,1-.49-2.62c2.68-5.41,3.6-11.36,5.2-17.1a3.56,3.56,0,0,0,.1-3.18c-.59-1-1.61-1.64-2-2.78s-.65-2.08-1-3.13c-.37-9.27-.23-18.55-.07-27.82,0-2.93,1.62-4.27,4.54-4.61a23.23,23.23,0,0,1,3.12-.08c6.43.15,11-2.63,13.67-8.54,1.1-2.42,2.82-3.3,5.48-2.63a7.42,7.42,0,0,0,6-.68c1.78-1.07,3.29-.6,4.71.86,2.7,2.78,3.5,2.9,6.89,1.17a4.57,4.57,0,0,1,5.35.55,13.27,13.27,0,0,1,1.22,1.15c2.89,2.79,3.37,2.75,5.7-.41,3.85-4.2,6.74-6.08,12-.16,1.43,1.62,3.29,2.78,4.81,4.33a9.85,9.85,0,0,1,3,5.33,38,38,0,0,1,0,4.27c-.43,3.53-2.51,5.74-5.65,7.12-2.34,1-4.77,1.83-7.06,3a9.69,9.69,0,0,0-5.65,7.2A51.26,51.26,0,0,1,126.08,448c-2.52,5.53-2.28,10.94,0,16.43a46.62,46.62,0,0,1,2.25,6.29,55.14,55.14,0,0,1,2.09,10.09,6.14,6.14,0,0,1,.2,1.48c0,1.76-.55,3.55.33,5.25a3.16,3.16,0,0,0,2,1.92,5.32,5.32,0,0,1,3.7,4.63c.44,5,3.28,7.58,7.72,9,.53.17,1.06.36,1.59.56a23.59,23.59,0,0,0,9.65,2.58c2.81.25,3,.6,3.45,3.53a58.92,58.92,0,0,1,.07,13.6c-.28,3.26.2,6.39,2.8,8.78,1.23,1.12,1.39,2.3.24,3.53-3.52,3.76-4.12,8.46-4.34,13.3-.22,5,.65,10-.47,15a7.63,7.63,0,0,1-1,2.92Z" transform="translate(-1.11 -0.74)"/><path class="cls-1" d="M274.61,159.9c1.39,4.24.14,7.35-3.64,9.8-3.14,2-6,4.57-9,6.76-1.58,1.12-2.09,2.13-1,3.94,2.15,3.46,1.15,7-.38,10.31a23.88,23.88,0,0,0-2.38,12.55,5.48,5.48,0,0,0,.2,1.66c1.44,3.05.43,5.68-1.1,8.37-3.7,6.53-4.86,13.82-5.69,21.09-1.72,15.06-4.21,30-6.45,45a9.6,9.6,0,0,1-1.69,4.93c-2.2,2.66-2,5.4-.52,8.25.33.64.65,1.28,1,1.94a5.38,5.38,0,0,1-.49,6.06,2.58,2.58,0,0,1-3.32-.23c-1.26-1.11-2.35-2.71-4.18-2.42-2.17.34-4.4.83-6.13,2.43A19.76,19.76,0,0,1,227,302c-2.61,1.41-2.7,1.72-1.28,4.29.32.88.65,1.76.9,2.67,0,3.7-1.81,6.9-2.73,10.35-.25.7-.48,1.4-.69,2.12q-4.54,13.1-8,26.52a4.9,4.9,0,0,1-1.71,2.79c-2.75,1.69-5.3.46-7.72-.74a49.53,49.53,0,0,1-11.83-8.09,3.86,3.86,0,0,0-4.12-1.16,3.9,3.9,0,0,1-3.41-.69c-4.86-3.25-10.1-5.83-15.2-8.65-3.25-1.79-5.12-4.25-4.69-8.11a17.57,17.57,0,0,0,0-1.92c.12-1.86-.87-2.73-2.57-3.17-2.34-.6-4.87-.33-7-2-.44-.33-1.23-.37-1.33-1.16a2.48,2.48,0,0,1,1.12-2.7,18.31,18.31,0,0,1,4.46-1.72c3.16-.92,3.17-.91,2-3.92a2.81,2.81,0,0,1,0-2.75c.44-.65,1.12-1.24,1.37.19a3.09,3.09,0,0,0,.3,2c.2.73.88,1.19,1.11,1.89.1.29,0-.09.06.21.1-.06,0-.11,0-.19-.2-.69-.92-1.08-1-1.81a2.54,2.54,0,0,1-.4-1.93,5.62,5.62,0,0,1,1.17-2.55,40.52,40.52,0,0,0,4.43-7,3.76,3.76,0,0,1,3.62-2.59c1.83.59,3.47-.19,5.15-.73a3.4,3.4,0,0,0,2.45-3.41c.17-3.7,1.57-6.41,5.32-7.67,1.73-.58,2.46-2.23,2.86-3.91,1.37-5.75,2.31-11.59,3.69-17.34.6-2.48-.74-4.27-2.53-5.83-4.45-3.87-4.47-4.06-1.21-9A38.74,38.74,0,0,0,195,233.11a25.85,25.85,0,0,0,1.82-9.36,8.25,8.25,0,0,0-2.05-5.48c-2.06-2.37-2.15-3.72-.62-6.53a40.71,40.71,0,0,1,4.73-6.92c2.85-3.32,5.11-6.81,3.78-11.52a2.42,2.42,0,0,1,.34-1.85,7.67,7.67,0,0,1,5-2.55c1.92-.22,2.24-1,1.55-2.82a12,12,0,0,0-1.11-2.13,26.35,26.35,0,0,1-3.85-10.49,7.65,7.65,0,0,1,2.36-7.18,77.89,77.89,0,0,0,9.76-10.85c1.9-2.49,2.6-2.24,5.76-1.63,6.43,1.25,12.34,4.26,18.86,5.21,3.2.46,6,.16,8.52-2s4.92-3.23,8-1.3a4.62,4.62,0,0,0,2.82.25,42.43,42.43,0,0,1,10.49.67C273.14,157,274.41,157.8,274.61,159.9Z" transform="translate(-1.11 -0.74)"/><path class="cls-1" d="M233.31,354.31a8.79,8.79,0,0,1-.61,7.39c-7.12,11.73-14,23.64-21.48,35.09-4.19,6.36-9.56,11.94-14.39,17.88-1.59,1.9-3.59,3.45-4.91,5.59a20.08,20.08,0,0,1-2.35,2.61c-6.4,7.44-13.21,14.55-18.18,23.12-1.28,1.16-1.41,2.85-1.8,4.33a124.06,124.06,0,0,1-5,15.17c-1.49,3.72-1.7,7.79-2.84,11.62-.62,1.53-.89,3.18-1.42,4.74-2.16,2.58-1.88,5.7-1.91,8.75,0,3.81-.55,7.6-.51,11.43,0,2-.78,2.6-2.67,2.41-2.85-.28-5.68-.65-8.19-2.23-1.4-.88-3.35-.55-4.51-2a34.86,34.86,0,0,1-2.83-4.83,32.26,32.26,0,0,1-2.63-6.17c-2.42-8.65-6.19-16.79-9.49-25.1a19.64,19.64,0,0,1,.09-15.76,74.9,74.9,0,0,0,3.61-12.17,6.76,6.76,0,0,1,4.42-5.22c2.46-.94,4.79-2.25,7.32-3,8.22-2.44,9.06-15.07,2.8-19.71-.9-.66-1.75-1.4-2.62-2.1a10.28,10.28,0,0,1-3.66-6,28.67,28.67,0,0,0-3.55-9.86c-1.49-2.36-.74-5.21,2-8,1.67-1.7,3.2-3.5,3.39-5.9.17-2.23.4-4.45.6-6.67.52-5.57.71-11.15,1.11-16.72.54-7.74,5.33-13.35,10.92-18.23a32,32,0,0,1,7.88-5,3.2,3.2,0,0,1,3.78.42c2.93,2.68,6.46,4.41,9.91,6.25,2.75,1.47,5.49,3,8.13,4.63,1.82,1.15,3.6,2.37,6,1.55,1-.35,1.82.42,2.51,1.1,3.35,3.3,7.41,5.57,11.43,7.86A10.34,10.34,0,0,0,212,352.8c1.57-.33,1.62-1.83,2.24-2.9,1.52-3.77,2.23-7.77,3.4-11.64,1.61-5.32,3.32-10.61,4.93-15.93a9.33,9.33,0,0,0,1.29-3.66c1-3.23,2.89-6.25,2.55-9.84-.28-.92-.63-1.81-.94-2.72-.37-3.12,2.09-4,4.14-5.16a21.34,21.34,0,0,1,3.35-1.31c4.27-1.16,7.63,1.6,8.68,5.82,1.68,6.72-1.07,12.57-2.67,18.65a83.68,83.68,0,0,1-5.88,16.15c-1.56,3.12-1.19,6.5-.5,9.81C232.85,351.5,233.12,352.9,233.31,354.31Z" transform="translate(-1.11 -0.74)"/><path class="cls-1" d="M32.69,421.07l-4.8-9.65c-.61-1.37-1.46-2.62-2-4a4.39,4.39,0,0,1,.91-5.24,2.62,2.62,0,0,1,2.85.26,7.32,7.32,0,0,0,3.3,1.08c2.07.12,4.14.06,6.21.05a9,9,0,0,1,4.15.91c4.29,2.15,8.41.5,12.51-.64,1.12-.32,1.62-1.49,2.1-2.5.86-1.79,2.22-2.76,4.21-2.36s3.26-.61,3.19-2.46c-.19-4.84,2.15-7.36,6.72-8.21a3.29,3.29,0,0,0,1-.6c.91-.45,1.75-1.12,1.67-2.14-.35-4.8,3-7.54,5.82-10.5,4.21-4.46,8.63-8.74,13-13.05,2.16-2.14,3.74-4.49,4-7.67.13-1.89,1.36-3.57,1.5-5.51.91-2.22,2.07-4.31,2.9-6.57,1.71-4.7,5.29-7.51,9.73-9.32a19.07,19.07,0,0,0,9.83-8.32c2.63-4.55,7.1-7.26,11.45-10,3.4-2.12,6.8-4.2,9.14-7.59a3.28,3.28,0,0,1,2.92-1.35c4.64,0,9.27-.05,13.9,0a6.16,6.16,0,0,1,1.42.2c1.3.35,2.53.9,2.68,2.38s-1.33,1.77-2.39,2.21a18.16,18.16,0,0,1-3.23.88c-1.57.33-2.65,1.12-2.66,2.88s.49,3.3,2.44,3.94a35.78,35.78,0,0,0,4.25.67c3.09.66,3.6,1.31,3.14,4.41-.26,1.72.34,3.85-2,4.67-8.34,3.41-14.29,9.47-18.73,17.12a15.7,15.7,0,0,0-2,7.33c-.18,4.38-.6,8.75-1.13,13.1a66.79,66.79,0,0,0-.27,6.93,13.09,13.09,0,0,1-3.67,9.1c-3.46,3.66-3.81,6.34-1.38,10.8a19.08,19.08,0,0,1,2.29,6.76c.15,1.24-.29,2.25-1.7,1.84-3.57-1-5.52,1.23-7.49,3.46-2.11,2.39-2.78,2.57-5.24,1.17-.49-.41-.93-.88-1.4-1.31a5.07,5.07,0,0,0-6.35-.9c-3.43,1.75-3.71,1.66-6.32-1.24-1.43-1.59-2.87-2.12-4.82-.91a8.94,8.94,0,0,1-6.48,1c-3.43-.61-4.83.3-6,3.51C90,410.51,85.72,413.37,80,413.5c-2.15.06-4.3-.11-6.35.85A4,4,0,0,0,71.1,417a44.08,44.08,0,0,0-.18,7.62c0,7.56-.21,15.11.14,22.66.21,2.15,1.76,3.7,2.55,5.59a14,14,0,0,1,.14,2.74c-1.17,5.26-1.85,10.66-4.55,15.48-1.32,2.36-2.24,2.7-4.56,1.75-5.62-3.77-10-8.83-14.56-13.73a90.15,90.15,0,0,1-8.65-10.84c-2.4-3.54-2.27-4.33.81-7.2A2.27,2.27,0,0,0,43,438.1a20.62,20.62,0,0,0-2-3.55,60.7,60.7,0,0,1-6.91-11.43A7.79,7.79,0,0,0,32.69,421.07Z" transform="translate(-1.11 -0.74)"/><path class="cls-1" d="M286.61,62.89A102,102,0,0,0,279.18,81a6.21,6.21,0,0,0-.06,2.61c.58,4.34,1.23,8.68,1.62,13a12.9,12.9,0,0,0,3.4,7.74c2.08,2.31,4.17,4.62,6.35,6.85,1.32,1.35,1.86,2.75.93,4.51-2.83,3.33-4.09,7.25-4.95,11.51a60.2,60.2,0,0,1-7.41,18.38,85.09,85.09,0,0,0-4.31,7.76,3.5,3.5,0,0,1-4.26,2.23,49.94,49.94,0,0,0-11.45-.84,8,8,0,0,1-3.27-.65,5.46,5.46,0,0,0-6.26,1c-3.73,3.71-8.11,3.6-12.51,2.21s-8.88-2.68-13.37-3.82c-2.57-.65-4.75-2.32-7.4-2.73a8.67,8.67,0,0,0-6.18-.31c-4.93,1.63-10.11-1.6-11.56-6.62-.47-1.65.17-2.89,1.11-4.18,2.81-3.86,5.8-7.58,8.87-11.24a15.76,15.76,0,0,0,3.3-6.55,26.77,26.77,0,0,0,.77-3.87,33.17,33.17,0,0,1,2.07-6.59,16,16,0,0,1,12.18-11,38.66,38.66,0,0,0,7.71-3.25,10.26,10.26,0,0,0,4.68-4.3,4.26,4.26,0,0,0,.36-3.63,6.34,6.34,0,0,1,.06-3,4.31,4.31,0,0,1,1.93-2.35c4.53-3,9.45-5.36,13.66-8.84,1.58-.18,2.52-1.32,3.54-2.36a21.05,21.05,0,0,0,8.43-6.54,2.3,2.3,0,0,1,2.25-1.1A6.19,6.19,0,0,0,276,61.54c2.95-5.6,8.7-6.94,13.65-9.53a1.29,1.29,0,0,1,.47-.11c1.09-.07,2.47-.53,3.11.55s-.47,1.91-1.14,2.65A47.21,47.21,0,0,0,286.61,62.89Z" transform="translate(-1.11 -0.74)"/><path class="cls-1" d="M63.8,186.8c4.1-5.89,6.23-12.67,8.6-19.32a81.35,81.35,0,0,1,6-13.74,1.13,1.13,0,0,1,1.3.32c3.44,3.15,7.77,5,11.44,7.81a26.33,26.33,0,0,0,10.25,4.37,6.78,6.78,0,0,0,5.22-1.14c3.29-1.94,6.53-4,10.21-5.14,3.26,1.2,6.77,1.87,9.23,4.69a3.64,3.64,0,0,0,3.54,1,10.49,10.49,0,0,1,5.65.63,10.55,10.55,0,0,0,6.14.44,5.32,5.32,0,0,1,4.68,1.11c2.75,2.11,5.29,2.07,8.1-.14a8,8,0,0,1,5.45-2.06,3.39,3.39,0,0,0,3-1.63,7.55,7.55,0,0,1,4.6-3.2,15,15,0,0,0,3.4-1.8,47.6,47.6,0,0,1,8.15-4.05,11.49,11.49,0,0,0,6.1-4.78c.72-1,.87-2.31,1.81-3.18a21.47,21.47,0,0,1,6.34-2,4,4,0,0,1,4.56,1.85c2.88,5,7.12,6.6,12.62,5.27a11.64,11.64,0,0,1,1.67,0c1.07.09,2.42-.32,2.95,1s-.46,2.11-1.12,3a55.54,55.54,0,0,1-9.35,10.2,6,6,0,0,0-2,4.68A24.24,24.24,0,0,0,205,183c1.9,3.82,1.9,3.82-1.68,6.26a8.54,8.54,0,0,0-.73.62,3.29,3.29,0,0,1-1,.64,4.08,4.08,0,0,1-2.27.1c-3.65-.63-7.33-.32-11-.24-3.28.07-5.46-1.06-6.87-4.08-1.55-3.34-4.29-5.71-7.24-7.82a2.9,2.9,0,0,0-3.56-.1c-3.13,2.09-6.27,4.14-10,5a2.92,2.92,0,0,0-1.91,1.73,6,6,0,0,1-4.27,3.5,5.3,5.3,0,0,0-2.09,1.15,3.7,3.7,0,0,1-4.37.86,2.44,2.44,0,0,0-3.28,1.06l0,0c-1.63,2.63-3.81,3.33-6.76,2.3-2.79-1-5.21-.31-6.81,2.38-1,1.77-2.2,2.2-4.32,1.28-4.55-2-7.65-.15-9.38,5.06a11.69,11.69,0,0,0-3.19,7c-.29,2.62-2,4.61-3.86,6.45a2.16,2.16,0,0,1-1.45.78c-5.45,0-11,.75-15.86-2.77-3.6-1.79-6.2-4.88-9.36-7.25-2.11-1.59-4.82-2.1-7-3.69-.83-.62-1.75-1.12-2.56-1.78A14.24,14.24,0,0,0,69.46,198a3.71,3.71,0,0,1-2.54-3,6.5,6.5,0,0,0-.13-2.91c-.15-1.36-.21-2.77-1.63-3.55C64.55,188.09,63.7,187.81,63.8,186.8Z" transform="translate(-1.11 -0.74)"/><path class="cls-1" d="M79.3,151.25c-.1-2.1,1.44-3.49,2.31-5.15,3.35-6.35,6.58-12.78,10.23-19,2.48-4.18,6-7.65,9.44-11.08a10.46,10.46,0,0,1,6.1-2.55,8.49,8.49,0,0,0,6.4-4.47A43.27,43.27,0,0,1,121,99.83c1.27-1.61,2.42-.91,3.51.22.86.89,1.24,2.21,2.49,2.75,2.88.71,5.37,2.39,8.19,3.27a10.88,10.88,0,0,1,4.13,2.79,86,86,0,0,0,13.5,10.3c3.15,2,7.11,2.29,10.66,3.47,3,1,6,1.67,9,2.41a9.27,9.27,0,0,1,4.59,2.45c2.56,2.63,4.86,5.51,7.15,8.36s1,6.31.05,9.39a14.6,14.6,0,0,1-2.51,4.34C176,153.67,170.32,158,164,161.29a9.47,9.47,0,0,0-2.37,1.59,3.69,3.69,0,0,1-3.49,1.14c-1.94-.4-3.4.46-4.72,1.75-2.62,2.54-4.68,2.58-7.13,0a3.61,3.61,0,0,0-3.63-1.22,12.29,12.29,0,0,1-6.61-.42,7.48,7.48,0,0,0-4.27-.07,5.53,5.53,0,0,1-5.63-1.78c-.28-.29-.57-.56-.86-.84-3.53-3.47-4.9-3.71-9.36-1.68-1.87,1.06-3.68,2.21-5.62,3.15-1.53.73-3,1.52-4.75.78a1.47,1.47,0,0,0-1.38.13c-1.19.8-2.28.42-3.35-.23a7.68,7.68,0,0,0-4.54-1.21c-2,.13-3.46-1-5.14-1.69a26.6,26.6,0,0,1-10.53-7.48C80.08,152.6,79.39,152.13,79.3,151.25Z" transform="translate(-1.11 -0.74)"/><path class="cls-1" d="M126.32,77.79c2.78,3.34,6.43,4.45,10.64,4.33a3.43,3.43,0,0,1,3.36,2.29,14.37,14.37,0,0,1,.84,2.73c.17,1,1.16,2.18.13,2.85-.87.57-1.59-.74-2.37-1.22a3.67,3.67,0,0,0-3.44,0c-5,1.82-7.17,5.81-8.29,10.64a1.13,1.13,0,0,1-1.36.27c-1.07-1.23-1.92-2.91-4.06-1.69-.67.38-1.11-.15-1-.84.29-1.31,0-2.73.71-4,.3-2,.7-3.91.87-5.88.25-2.93.51-5.83,2-8.48C124.84,78.14,125.3,77.42,126.32,77.79Z" transform="translate(-1.11 -0.74)"/><path class="cls-2" d="M67.2,194.9a2.34,2.34,0,0,1-.06-2.81A2.34,2.34,0,0,1,67.2,194.9Z" transform="translate(-1.11 -0.74)"/><path class="cls-1" d="M93.08,215.61c2.64,2.22,5.8,2.81,9.12,2.9,2.6.07,5.22-.59,7.81.39,1,.4,1.77-.35,2.25-1.29,2.77-5.46,4.32-11.46,7.43-16.77.15-.26-.09-.74-.15-1.12a14.18,14.18,0,0,1,4.41-.93,3,3,0,0,1,3.18,1.66c1.08,2.06,2.11,1.16,3,0,.72-.94,1.21-2.06,1.89-3,1.59-2.31,3.1-2.87,5.74-2,3.22,1.07,6,.77,7.92-2.36a1.64,1.64,0,0,1,2.16-.85,1.6,1.6,0,0,1,.47.31,2.14,2.14,0,0,0,3-.21,1.15,1.15,0,0,0,.14-.17,7.45,7.45,0,0,1,3-2c2.47-.94,5-1.74,5.7-4.78a1.76,1.76,0,0,1,1.5-1.06c3.4-.61,6.19-2.47,8.94-4.4a2.48,2.48,0,0,1,3.52.09l.06.06c2.79,2.43,5.43,5,7.07,8.32.78,1.61,2.63,1.8,3.62,3.07a128.74,128.74,0,0,1,14.83.14h0a8.47,8.47,0,0,1-.7,10.89,40.15,40.15,0,0,0-6.72,9.8c-1.53,3.19-1.41,4.31,1.09,6.76,1.56,1.54,1.84,3.31,1.8,5.39-.07,2.73-1.1,5.26-1.21,8a75,75,0,0,1-8,14.66c-1.68,2.44-1.49,3.46.83,5.19.26.19.53.35.8.53,3.4,2.17,5.11,4.71,3.65,9.15-1.57,4.74-2.25,9.77-3.32,14.67,0,2.1-1.67,2.62-3.19,3.27-4,1.74-5,3.23-4.83,7.41.11,2.19-1.17,2.87-3,3.17-2.17.35-4.42.36-6.41,1.48-1.24,0-1.8,1-2.21,1.92a50.35,50.35,0,0,1-4.47,7.64,7.21,7.21,0,0,1-6.19,3.46c-7.61.33-15.11-1.32-22.71-1.06a2.9,2.9,0,0,1-2.46-1.31,63.68,63.68,0,0,0-6.49-7.34,3.34,3.34,0,0,1-1-3c.6-4-.82-6.71-4.57-8.16-3.5-1.37-7-2.49-9.75-5.34-1.56-1.61-3.89-1.27-5.83-.18-3.79,2.1-7.73,1.54-11.69.83-1.13-.21-1.52-1-1.49-2.1.08-3.18,0-6.28,1-9.44s.36-6.43,1.28-9.61c.38-1.34.72-2,2.13-2.32a4.72,4.72,0,0,0,3.45-5.69c-.47-1.74-1.47-2.31-3.22-1.8-3.44,1-3.59.94-5.25-2.12A4.53,4.53,0,0,0,88.36,244a3.37,3.37,0,0,1-2.48-3.86c.21-3,.37-6,.57-9.08a7.18,7.18,0,0,0-.62-3.74c-1.79-3.57-2-7.53-3-11.3-.29-1.08,0-1.58,1.06-1.91,2.45-.74,4.8-1.19,7,.68A3.16,3.16,0,0,0,93.08,215.61Z" transform="translate(-1.11 -0.74)"/><path class="cls-1" d="M92.13,349.53c.61.56,1.35.37,2.06.39,2.79.07,3.27.73,2.57,3.51-1.2,4.7-4.24,8.15-7.72,11.26-5.05,4.53-9.61,9.53-14.27,14.44-1.25,1.31-.71,3-1.2,4.52a24.33,24.33,0,0,0-.56,2.8c-1.26.5-2.5,1.05-3.78,1.49-4.1,1.39-5.23,2.78-5.25,7.14,0,2-.37,2.82-2.6,2.2s-3.2,1.05-4.13,2.56c-2.35,3.82-9.86,5.87-13.74,3.48a6.91,6.91,0,0,0-4.9-1.1,12,12,0,0,1-6.38-.41A18.35,18.35,0,0,1,28.88,400c-1.54-.88-2.36-.05-3,1.26-2.4,2.09-2.47,2.07-4.35-.48a90.4,90.4,0,0,0-12-13c-4.45-4-5.87-8.79-6.17-14.44-.11-2.12.38-4.56-1.7-6.19a8.25,8.25,0,0,1,0-5.63A110.4,110.4,0,0,0,5.84,340c.14-1.46.82-2,2.29-2.15,3.34-.28,6.26,1,9.24,2.15,4.36,1.71,5,1.56,7.44-2.3,1-1.61,2.26-2.29,4-1.31a1.8,1.8,0,0,0,2.37-.1,1.74,1.74,0,0,0,.43-2.19c-.77-1.61,0-2.71,1-3.87a48.93,48.93,0,0,1,11.84-9.65,8.66,8.66,0,0,1,7.11-1.05,12,12,0,0,0,8-.52c2.75-1.13,5.08-1.15,7,1.53a2.24,2.24,0,0,0,1.77,1.11c2.47,2.46,4.32,5.5,7.42,7.37,1.27.77,1.09,2.13.06,3.06-1.63,1.49-1.46,3-.43,4.68a87.94,87.94,0,0,1,6.11,12.15c.57,1.37,1.33,2.64,3.13,2.39s3.62-.28,3.9-2.68c.07-.54.27-1.18.91-1.24s.62.64.87,1A2.16,2.16,0,0,0,92.13,349.53Z" transform="translate(-1.11 -0.74)"/><path class="cls-1" d="M68.76,320.18l-.43-.56c-2.43-3.54-5.37-4.47-9.36-2.36-2.23,1.18-4.89.89-7.31.44a11.82,11.82,0,0,0-8.27,1.56,51.8,51.8,0,0,0-12.55,10.29.65.65,0,0,0-.15.18c-1,2.4-1.74,4.8-5.23,4.73-1.28,0-1.89,2-2.64,3.22A2.65,2.65,0,0,1,19.3,339l-.1-.05c-3.56-1.29-6.89-3.42-10.95-3-.89.09-1.12-.76-1.1-1.54,0-1.52.12-3,.18-4.55A12.56,12.56,0,0,0,8,323.75c-.37-2,.1-4,.18-5.95a84.9,84.9,0,0,0-.27-9.57c-.09-1.21-.88-2.82.87-3.6,1.94-.86,3.94-1.42,5.94-.13.4.26.74.6,1.14.88,3.41,2.37,6.12,1.59,7.91-2.28.27-.57.41-1.2.65-1.79a5.15,5.15,0,0,1,6.09-3.37c3.19.56,4.35,0,5.7-2.92.51-1.09,1.07-2.15,1.54-3.25.68-1.58,1.31-2.66,3.26-1.18,1.24.93,2.4-.15,3.34-1.06A56.91,56.91,0,0,1,52.22,283c4.2-2.81,8.75-3.21,13.53-2.09a4.25,4.25,0,0,1,2.74,1.79A9.2,9.2,0,0,0,71,285.21c2.75,2.55,5.74,3.24,9.63,2.66a81,81,0,0,1,17.4-.35c2.68.18,5.43-.75,8,.42,2.19.63,3-.41,2.92-2.44a7.76,7.76,0,0,1,.13-2.15c.28-1,.92-1.79,2.1-1.06,2.55,1.57,5.47,2.19,8.21,3.27,3.27,1.29,4.26,3,3.63,6.52a4.08,4.08,0,0,0,1.42,4.07,24.71,24.71,0,0,1,4.67,5.12,8.69,8.69,0,0,0,8.8,4.13c.86-.09,2.07-.67,2.59.44s-.66,1.83-1.28,2.6a12.82,12.82,0,0,1-3.37,2.67A26.71,26.71,0,0,0,133,313c-2.32,1.56-4.66,3.1-7,4.69a14.1,14.1,0,0,0-5,5.12c-2.23,4.65-6.19,7.18-10.53,9.36-1.14.58-2.29,1.13-3.43,1.72a10.69,10.69,0,0,0-5.45,6.08,42.06,42.06,0,0,1-2.16,4.55c-1.64,3.2-3,3.87-6.53,3.46-1.21-.15-1.28-1-1.56-1.82-.79-2.31-1.54-2.48-3.18-.61a16.44,16.44,0,0,0-1.56,2.4,2.9,2.9,0,0,1-2.36,1.45c-1.23.07-1.13-1.08-1.51-1.82-1.88-3.62-3.38-7.43-5.62-10.85a3,3,0,0,1,0-3.91c1.84-2.52,1.65-3.56-.82-5.35C73.51,325.37,71.53,322.37,68.76,320.18Z" transform="translate(-1.11 -0.74)"/><path class="cls-1" d="M13.61,269.39A2.73,2.73,0,0,0,15,267.44a20.79,20.79,0,0,0,2.41-4.29l2.3-4a1,1,0,0,0,.14-.35,9.38,9.38,0,0,0,2.2-3c.39-.6.81-1.18,1.17-1.8,1.15-1.94,2.61-2.35,4.58-1.12a10.62,10.62,0,0,0,10.11.63,26.81,26.81,0,0,1,20.91-.26c4.31,1.72,9.09,1.57,13.68,2,5.39.5,10.81.73,16.23,1,2.25.11,3.24,1.2,3,3.36q-.72,6-1.61,12.07a33,33,0,0,0-.17,7.16c.11,1.62.73,2.84,2.78,2.07a3.22,3.22,0,0,1,2.09.29,12.14,12.14,0,0,0,9.52-.72,6.35,6.35,0,0,1,4.53-.49c-.58,1.2-1.38,2.15-1.27,3.43.2,2.29-.92,3.09-3.06,2.49a8.59,8.59,0,0,0-4,.1c-7.49,1.49-15.17,0-22.66,1.45-2,.39-3.42-.63-4.62-2a33.11,33.11,0,0,1-3-3.69c-.9-2.64-2.93-3.53-5.47-3.23a26.81,26.81,0,0,1-5.94,0A8.32,8.32,0,0,0,53,280.17c-3.31,2.36-6.89,4.37-9.56,7.55a1.68,1.68,0,0,1-2.33.45,1.56,1.56,0,0,1-.2-.16c-1.92-1.34-3.15-.35-4.07,1.3s-1.66,3.27-2.47,4.92a2.59,2.59,0,0,1-3.15,1.51,8.09,8.09,0,0,0-8.84,4.84A12.24,12.24,0,0,1,21.1,303c-1,1.44-2.3,1.92-3.88.72-.76-.57-1.58-1.09-2.38-1.61a3.7,3.7,0,0,0-4.62,0c-2.17,1.51-2.77,1-3-1.59C6.25,289.44,9.06,279.24,13.61,269.39Z" transform="translate(-1.11 -0.74)"/><path class="cls-1" d="M39.92,222.84c6.21-7,11.53-14.62,15-23.41a51.74,51.74,0,0,1,4.38-8.74c.62-1,1.11-2.43,2.61-1.93a3.87,3.87,0,0,1,2.91,3.17c.12.86,0,1.75.1,2.62a5.06,5.06,0,0,0,3.5,4.88,10.15,10.15,0,0,1,5.42,4.13,2.34,2.34,0,0,0,2.08,1.38c2.14,1.76,4.86,2.4,7.22,3.73.92.51,2,1,1.88,2.22s-1.26,1.55-2.26,1.77c-2,.42-2.43,1-1.92,3.42,1.37,6.47,4.93,12.56,3.75,19.53-.25,1.49-.46,3-.62,4.49-.24,2.4.57,4.28,2.91,5.19a6.25,6.25,0,0,1,3.3,3c1.26,2.28,2.92,2.94,5.4,2.27.82-.22,1.72-.88,2.22.34a2.25,2.25,0,0,1-.89,2.95,5.76,5.76,0,0,1-3.63,1.06c-5-.58-10.07,0-15-.69-8.68-1.16-17.47-1.6-25.88-4.46-3.67-1.25-7.42-.25-11,.9-1.82.58-3.68,1.08-5.45,1.78-3,1.18-5.45.09-8-1.28-1.14-.62-1.24-1.32-.41-2.27A22,22,0,0,0,32.05,240C33.61,233.75,37,228.38,39.92,222.84Z" transform="translate(-1.11 -0.74)"/><path class="cls-1" d="M209.37,120.52a2.37,2.37,0,0,1-.34,3c-4.16,5.1-8.2,10.31-12.31,15.46-2.31,2.91-5.15,4.91-9,5.15-1.43-.9-.93-2.2-.71-3.44a7.17,7.17,0,0,0-3.51-7.89c-.68-.43-1-1.4-1.5-2.14a16.92,16.92,0,0,0-11.2-7.83c-6.85-1.44-13.72-3-19.85-6.73a46.18,46.18,0,0,1-8.94-7.18,19.14,19.14,0,0,0-10.85-5.6c-1.24-.19-1.6-.68-1.53-1.86a12.49,12.49,0,0,1,3.87-8.74c2.11-2,3.91-1.87,6.31.25,1.2,1.07,2.32,3,4.21,1.58s1.34-3.34.53-5.19a13.67,13.67,0,0,1-.78-2.5c-1.11-5.06-4.09-7.55-9.19-7.66-3.57-.07-4.94-1.17-5.87-4.7a25.83,25.83,0,0,0,7-8,5,5,0,0,1,5.79-2.33c6.08,1.46,12,3.2,16.95,7.33,2.56,2.13,4.11,5.06,6.17,7.59,1.41,1.73,2.75,3.52,4.92,4.41a1.09,1.09,0,0,1,1.34.61,8.54,8.54,0,0,0,6.73,2.33c1.07,1.56,2.93,1.37,4.43,2,1.32.55,2.72.9,4,1.51,2.67,1.28,3.43,2.86,3,5.81a48.27,48.27,0,0,0-.9,7.57,4.68,4.68,0,0,0,1.63,3.78c4.62,4.17,9.42,8.07,15.1,10.76A52,52,0,0,1,209.37,120.52Z" transform="translate(-1.11 -0.74)"/><path class="cls-1" d="M199.83,47.57a9.15,9.15,0,0,1-6.72,7.37c-4.64,1.47-6.3,5.77-3.94,10.14A15.25,15.25,0,0,0,191.23,68a9,9,0,0,1,2.38,5.4c.4,3.67,1.62,5,5.17,6,2.33.64,4.65,1.14,7,.25,1.87-.71,2.64.37,2.61,2-.1,5.42,1.55,10.36,3.81,15.18a9.16,9.16,0,0,0,1.18,2.06c2.19,2.67,2.44,5.32.47,8.09-1.78,2.51-3.37,5-3.71,8.16-.19,1.76-1.54,1.19-2.58.69a71.12,71.12,0,0,1-9.92-6.27,3.47,3.47,0,0,0-.38-.29c-5.53-2.7-6.68-6.88-5-12.67,1.4-5-1-8.53-5.93-10.12-3.17-1-6.39-1.9-9.59-2.84-5.79-1.27-8.94-5.71-12.17-10.08-5.39-7.31-13-10.7-21.7-12-.79-.12-1.68-.13-2-1s.34-1.45.85-2.06a48,48,0,0,1,13.44-10.6,56.54,56.54,0,0,0,10.42-7.2c5.52-5,12.16-6.65,19.33-7,2.59.93,5.31,1.45,7.83,2.64C197.45,38.57,201.09,41.49,199.83,47.57Z" transform="translate(-1.11 -0.74)"/><path class="cls-3" d="M94.76,162.45c.86-.23,1.27,0,1.53.6C95.61,163.48,95.14,163.19,94.76,162.45Z" transform="translate(-1.11 -0.74)"/><path class="cls-1" d="M244.38,45.5a9.25,9.25,0,0,0-6.55,3.5c-2.45,3.24-2.22,4.66,1.52,7.44-.22.7-.84.69-1.35.61-4.3-.76-7.95-2.69-9.84-6.76-1.15-2.49-2.6-3.7-5.32-3.21-2.08.36-2.59-.49-2-2.41a15.85,15.85,0,0,1,1.54-3.74c1.71-2.81,1.29-4.76-1.39-6.66-.32-.23-.7-.38-1-.61-1.3-.88-3.93-.51-3.72-2.71.25-2.71,1.4-5.3,4.1-6.65a9.9,9.9,0,0,1,2.95-.91,3.13,3.13,0,0,0,3-2.51A4.19,4.19,0,0,1,230,17.81a3.19,3.19,0,0,1,3.78,1.74c1.22,2.32,2.37,4.72,4.55,6.37a1,1,0,0,1,.42,1.35.75.75,0,0,1-.07.12c-1,1.54-.32,2.82.38,4.24a7.26,7.26,0,0,1,.87,3.44A13,13,0,0,0,244.38,45.5Z" transform="translate(-1.11 -0.74)"/></svg>