<svg xmlns="http://www.w3.org/2000/svg" viewBox="0 0 303.95 566.97"><defs><style>.cls-1{fill:#fefefe;}.cls-2{fill:#68a2dc;}.cls-3{fill:#f3e3d3;}.cls-4{fill:#eccf89;}.cls-5{fill:#f5e8da;}.cls-6{fill:#f1dfcf;}.cls-7{fill:#f5e6d7;}.cls-8{fill:#f4e6d6;}.cls-9{fill:#f5e4d5;}.cls-10{fill:#f4e7d9;}.cls-11{fill:#f3e4d4;}.cls-12{fill:#f4e3d2;}.cls-13{fill:#f2e1d1;}.cls-14{fill:#f0e0d1;}.cls-15{fill:#f2e0d1;}.cls-16{fill:#f3e3d4;}.cls-17{fill:#ebe6e1;}.cls-18{fill:#f1e1d1;}.cls-19{fill:#f0e3d7;}.cls-20{fill:#eaeaea;}.cls-21{fill:#ebd3bf;}.cls-22{fill:#e9d4c0;}.cls-23{fill:#ecebea;}.cls-24{fill:#dda67d;}.cls-25{fill:#ece1d7;}.cls-26{fill:#d6a886;}.cls-27{fill:#eac8ac;}.cls-28{fill:#f4e5d7;}.cls-29{fill:#dda57c;}.cls-30{fill:#f5e6d8;}.cls-31{fill:#fdfaf8;}.cls-32{fill:#eeecea;}.cls-33{fill:#f4e5d6;}.cls-34{fill:#ede1d5;}.cls-35{fill:#efe2d5;}.cls-36{fill:#ebe0d6;}.cls-37{fill:#dabba1;}.cls-38{fill:#e0c5b0;}.cls-39{fill:#bbcad8;}.cls-40{fill:#c1d9f0;}.cls-41{fill:#e3edf7;}.cls-42{fill:#f9f6f4;}.cls-43{fill:#eff3f7;}.cls-44{fill:#e4ebf1;}.cls-45{fill:#d8b599;}.cls-46{fill:#f2e1ce;}.cls-47{fill:#ebddd0;}.cls-48{fill:#e4c1a6;}.cls-49{fill:#f5e7d8;}.cls-50{fill:#f2e2d2;}.cls-51{fill:#ecd8c6;}.cls-52{fill:#f8fafb;}.cls-53{fill:#ebeff3;}.cls-54{fill:#edeeed;}.cls-55{fill:#f4e6d8;}.cls-56{fill:#f2e0d0;}.cls-57{fill:#f3e8de;}.cls-58{fill:#f1f3f5;}.cls-59{fill:#fcf9f7;}.cls-60{fill:#e7e1d8;}.cls-61{fill:#f1e4d6;}.cls-62{fill:#efdece;}.cls-63{fill:#dea47a;}.cls-64{fill:#e0b89b;}.cls-65{fill:#f2f5f7;}.cls-66{fill:#f0c7a8;}.cls-67{fill:#f4f4f1;}.cls-68{fill:#ecc5a6;}.cls-69{fill:#7eadda;}.cls-70{fill:#ebc3a2;}.cls-71{fill:#debea4;}</style></defs><title>資產 1</title><g id="圖層_2" data-name="圖層 2"><g id="圖層_1-2" data-name="圖層 1"><path class="cls-1" d="M154.52,566.93q-76.07,0-152.14,0c-1.6,0-2-.25-2-1.94q.07-281.47,0-563C.39.28.83,0,2.5,0Q152.25.09,302,0c1.9,0,2.36.32,2.36,2.31q-.09,281.24,0,562.48c0,1.85-.48,2.18-2.23,2.18q-72.11-.08-144.22,0c-1.1-1.45-.21-3,0-4.39a29.05,29.05,0,0,0,.41-6.6,49.12,49.12,0,0,1,.45-12.64,16.17,16.17,0,0,1,3.84-7.61c.94-1.11,1-2.12,0-3.17-3.2-3.38-3.79-7.36-2.9-11.78a21.7,21.7,0,0,0-.18-9.72,23.42,23.42,0,0,1-.43-5.95q.06-7.08,0-14.14a18.85,18.85,0,0,1,1.36-7.24c1-3.16,3-5.82,4.31-8.84,3-.33.88-1.91.74-3-.29-9,3.22-17.18,5.59-25.61,1.6-4.07,4.56-7.23,7.23-10.57q4.74-5.94,9.72-11.72a5.3,5.3,0,0,1,1.62-1.36c1.45-.45,2.14-1.7,3-2.8a23.79,23.79,0,0,0,4.21-5.36c2.52-4,5.75-7.46,8.84-11a102.69,102.69,0,0,0,12.25-18c3.45-6.22,7.16-12.29,11.19-18.16,2.74-4,5.3-8,4.18-13.26.23-2.19-.54-4.26-.87-6.36a14.21,14.21,0,0,1,1.34-8.35c3.74-8.09,5.77-16.73,8.18-25.24a15.17,15.17,0,0,0,.06-6.9,8.92,8.92,0,0,1,1.22-6.84,5.43,5.43,0,0,0,.18-6.12c-2.15-3.73-2.31-7.19.17-11,1.91-2.92,1.66-6.62,2.18-10,1.25-8.13,2.77-16.22,3.77-24.38.8-6.5,1.47-13,2.56-19.47,1-6.2,2.57-12.19,5.63-17.71a7.73,7.73,0,0,0,.69-5.73A22.51,22.51,0,0,1,260,191.4c1.82-3.85,2.74-7.62.43-11.66-.94-1.65.22-2.86,1.56-3.79,3-2.1,5.78-4.56,8.79-6.64,3.38-2.34,4.82-5.19,3.61-9.2.15-5.85,2.95-10.69,6.07-15.32a36.43,36.43,0,0,0,4.18-8.77c1.65-4.82,3-9.7,4.28-14.63.51-2,2.25-3.52,2.36-5.7a4.08,4.08,0,0,0-1.33-4.52c-1.15-1.11-2.18-2.36-3.36-3.41-5.48-4.88-6.57-11.4-6.93-18.2a12.63,12.63,0,0,0-.23-2.38,16.26,16.26,0,0,1,1.12-11.41c2-4.31,3.15-9,5.89-13a23.62,23.62,0,0,0,5.18-5.87,16,16,0,0,1,8.44-6.66c.88-.3,1.9-.49,2.06-1.7a4,4,0,0,0-3.25-4.63c-3.87-.88-6.06-3.14-7.7-6.73a8.94,8.94,0,0,0-7.7-5.34,29.86,29.86,0,0,1-9.89-2.72,29,29,0,0,0-9.76-2.28c-6.57-.56-10.73-4.56-14.11-9.58a5.86,5.86,0,0,0-4.3-3c-3.32-.4-5.45-2-6.17-5.37a9.9,9.9,0,0,0-1-2.18c-1.76-3.48-4.21-5.78-8.5-5.07a17.7,17.7,0,0,1-2.63,0,5.12,5.12,0,0,0-3.13,1c-5.48,3.17-10.24,7.32-15.26,11.11a8.46,8.46,0,0,0-3.26,5.15c-.9,4.27-3.52,6.91-7.47,8.64-4.68,2.06-9.29,4.21-14.44,4.85-2.61.33-5.1,1.28-7.66,1.83a12.66,12.66,0,0,0-5.69,2.31c-6.31,4.45-12.42,9.2-19.18,13-6.52,3.66-10.86,9.49-15.16,15.35-2.07,2.82-3.9,5.83-6.37,8.36-1.38,1.13-2.24,2.7-3.47,4a4.23,4.23,0,0,0-.88,2.18c-1.73,3.61-1.41,7.59-2.07,11.39a7.55,7.55,0,0,1-.64,2.51c-1.56,2-.54,4.26-.66,6.4-3,4-6.06,8-8.93,12.1a4,4,0,0,1-2.81,1.71c-6.85.68-10.53,5.67-14.61,10.3-3.73,4.23-5.67,9.42-8.35,14.2-2.46,4.38-4.94,8.76-7.18,13.26-1.33.59-.8,1.71-.76,2.69-4.59,8.81-7,18.52-11.12,27.5a18.52,18.52,0,0,1-3.44,5.43c-1.24.42-1.7-.08-1.35-1.27a15.15,15.15,0,0,1,1.19-2.11c-.66,1.06-1.2,1.88-1.73,2.7-3.61,4.27-5.91,9.24-8.06,14.36-3.39,8.1-8.52,15.17-14,22-4.09,5.45-6.51,11.69-8.75,18a31.45,31.45,0,0,1-7,11.35,25.58,25.58,0,0,0-5.09,7.5c-.62,1.21-1.27,2.39-2,3.54-.75,1.51-1.73,2.89-2.47,4.42a14.63,14.63,0,0,1-1.48,2.57,57.37,57.37,0,0,0-5.93,17.37,59.49,59.49,0,0,0-.23,18.11c.85,6.09.25,12.1.66,18.13.15,2.1-.42,4.12-.48,6.19-.4,5.42-1.91,10.67-2.63,16a154.61,154.61,0,0,1-3.37,16.39,6.47,6.47,0,0,0,.24,4.66c1.86,2.66,1.55,5.84,1.75,8.79a17.15,17.15,0,0,0,5.54,12,141.86,141.86,0,0,1,14.36,15.65c.47.65,1.07,1.21,1.53,1.87,1.11,2.06,1.73,4.39,3.42,6.13,1.84,3.09,3.37,6.35,4.89,9.6A47.83,47.83,0,0,0,40,432.58c.72,1,1.4,1.94,2.05,2.95,2,3.11,1.94,3.7-.49,6.43a4,4,0,0,0-.34,5.25,72.93,72.93,0,0,0,6.28,8.46,116.21,116.21,0,0,0,14.74,15c.75.61,1.57,1.11,2.36,1.64a34,34,0,0,0,7.38,4,5.24,5.24,0,0,1,.64.29c3.69,1.81,3.78,1.8,6.59-1.11a1.46,1.46,0,0,1,2,.65c1.38,3.52,4.5,4.91,7.56,6.41,3.94,3.24,7.71,6.69,11.36,10.25A8.69,8.69,0,0,0,103.5,495c3.55,2.23,5.83,5.92,9.39,8.14a18.77,18.77,0,0,1,6.82,7.76A115.25,115.25,0,0,0,128,524.11a9.38,9.38,0,0,1,1.27,8.22c-.55,2.09-1,4.2-1.72,6.25a6.61,6.61,0,0,0,1.15,6.54q2.1,2.77,4.3,5.47a28.11,28.11,0,0,1,5.05,8.38,5.38,5.38,0,0,0,.5,1.09c.4.66.62,1.69,1.62,1.48s.89-1.21,1.07-2,.17-1.75.39-2.6c.67-2.52,2.14-3.16,4.22-1.68,2.41,1.72,4.81,3.47,7.06,5.38A5.38,5.38,0,0,1,154.52,566.93Z" transform="translate(-0.39)"/><path class="cls-2" d="M154.52,566.93c-.18-3.26-1-6-4.34-7.62-1.69-.81-3-2.32-4.54-3.51-1.93-1.52-2.9-1.16-3.39,1.29-.28,1.4-.45,2.83-.69,4.24a1.38,1.38,0,0,1-1.21,1.3,1.57,1.57,0,0,1-1.6-.84,2.1,2.1,0,0,1-.22-.42c-2.06-6-6.29-10.69-10.13-15.59a7.43,7.43,0,0,1-1.33-7.82,41.11,41.11,0,0,0,1.78-6.2,8.52,8.52,0,0,0-1-6.86c-3.67-5.7-7.8-11.13-10.59-17.37-.69-1.54-2.4-2.08-3.69-3-3.83-2.65-6.73-6.31-10.35-9.17-4.91-4-8.91-9-14.15-12.59-3.07-1.65-6.14-3.23-7.79-6.62-.61-1.27-1.65-1.38-2.47,0-2.14,2-3.1,2.05-6.4.45-.8-.35-1.75-.43-2.33-1.22a3.61,3.61,0,0,1-.49-2.62c2.68-5.41,3.6-11.36,5.2-17.1a3.56,3.56,0,0,0,.1-3.18c-.59-1-1.61-1.64-2-2.78s-.65-2.08-1-3.13c-.37-9.27-.23-18.55-.07-27.82,0-2.93,1.62-4.27,4.54-4.61a23.23,23.23,0,0,1,3.12-.08c6.43.15,11-2.63,13.67-8.54,1.1-2.42,2.82-3.3,5.48-2.63a7.42,7.42,0,0,0,6-.68c1.78-1.07,3.29-.6,4.71.86,2.7,2.78,3.5,2.9,6.89,1.17a4.57,4.57,0,0,1,5.35.55,13.27,13.27,0,0,1,1.22,1.15c2.89,2.79,3.37,2.75,5.7-.41,3.85-4.2,6.74-6.08,12-.16,1.43,1.62,3.29,2.78,4.81,4.33a9.87,9.87,0,0,1,3,5.33,35.79,35.79,0,0,1,0,4.27c-.43,3.53-2.51,5.74-5.65,7.12-2.34,1-4.77,1.83-7.06,3a9.7,9.7,0,0,0-5.65,7.2,51.1,51.1,0,0,1-3.48,11.42c-2.52,5.53-2.28,10.94,0,16.43a46.62,46.62,0,0,1,2.25,6.29,54.48,54.48,0,0,1,2.09,10.09,6.27,6.27,0,0,1,.2,1.48c0,1.76-.55,3.55.33,5.25a3.15,3.15,0,0,0,2,1.92,5.32,5.32,0,0,1,3.7,4.63c.44,5,3.28,7.58,7.72,9,.53.17,1.06.36,1.59.56a23.7,23.7,0,0,0,9.65,2.58c2.81.25,3,.6,3.45,3.53a58.92,58.92,0,0,1,.07,13.6c-.28,3.26.2,6.39,2.8,8.78,1.23,1.12,1.39,2.3.24,3.53-3.52,3.76-4.12,8.46-4.34,13.3-.22,5,.65,10-.47,15a7.74,7.74,0,0,1-1,2.92Z" transform="translate(-0.39)"/><path class="cls-3" d="M156.92,566.93c1.45-5.47.84-11.06,1-16.62s.29-10.88,4.56-15.11c.88-.87.66-1.9-.32-2.68-2.34-1.88-2.92-4.38-2.86-7.25.1-4.95.06-9.89,0-14.84,0-3-.56-3.45-3.46-3.57a19.5,19.5,0,0,1-10-2.84c-.12-.76-1.44-1.6.14-2.27a3.84,3.84,0,0,1,2.25.7,17.29,17.29,0,0,0,4.75,1.6c4.14.92,4.87.22,5.21-3.89s.29-8.14.5-12.2c.09-1.79,0-4,2.5-4.55a23.25,23.25,0,0,0-1.45,9.57c.08,4.07.22,8.16-.07,12.21-.26,3.65,1.16,7,1.1,10.64a39.29,39.29,0,0,1-.65,6.87,9.84,9.84,0,0,0,2.62,9c1.56,1.69,1.72,2.92.08,4.65a15.55,15.55,0,0,0-3.94,10.5,58.36,58.36,0,0,0,.23,11c.37,2.43-.81,4.81-1.06,7.24-.07.63-.15,1.26-.22,1.89Z" transform="translate(-0.39)"/><path class="cls-2" d="M275,159.9c1.39,4.24.14,7.35-3.64,9.8-3.14,2-5.95,4.57-9,6.76-1.58,1.12-2.09,2.13-1,3.94,2.15,3.46,1.15,7-.38,10.31a23.82,23.82,0,0,0-2.38,12.55,5.25,5.25,0,0,0,.2,1.66c1.44,3.05.43,5.68-1.1,8.37-3.7,6.53-4.86,13.82-5.69,21.09-1.72,15.06-4.21,30-6.45,45a9.57,9.57,0,0,1-1.69,4.93c-2.2,2.66-2,5.4-.52,8.25.33.64.65,1.28,1,1.94a5.38,5.38,0,0,1-.49,6.06,2.58,2.58,0,0,1-3.32-.23c-1.26-1.11-2.35-2.71-4.18-2.42-2.17.34-4.4.83-6.13,2.43a19.76,19.76,0,0,1-2.87,1.62c-2.61,1.41-2.7,1.72-1.28,4.29.32.88.65,1.76.9,2.67,0,3.7-1.81,6.9-2.73,10.35-.25.7-.48,1.4-.69,2.12q-4.54,13.1-8,26.52a4.9,4.9,0,0,1-1.71,2.79c-2.75,1.69-5.3.46-7.72-.74a49.53,49.53,0,0,1-11.83-8.09,3.86,3.86,0,0,0-4.12-1.16,3.91,3.91,0,0,1-3.41-.69c-4.86-3.25-10.1-5.83-15.2-8.65-3.25-1.79-5.12-4.25-4.69-8.11.07-.63,0-1.28,0-1.92.12-1.86-.87-2.73-2.57-3.17-2.34-.6-4.87-.33-7-2-.44-.33-1.23-.37-1.33-1.16a2.48,2.48,0,0,1,1.12-2.7,18.31,18.31,0,0,1,4.46-1.72c3.16-.92,3.17-.91,2-3.92a2.83,2.83,0,0,1,0-2.75c.44-.65,1.12-1.24,1.37.19,0,.68-.15,1.38.3,2,.2.73.88,1.19,1.11,1.89.1.29-.05-.09.06.21.1-.06,0-.11,0-.19-.2-.69-.92-1.08-1-1.81a2.54,2.54,0,0,1-.4-1.93,5.61,5.61,0,0,1,1.17-2.55,40.31,40.31,0,0,0,4.43-7,3.75,3.75,0,0,1,3.62-2.59c1.83.59,3.47-.19,5.15-.73s2.38-1.8,2.45-3.41c.17-3.7,1.57-6.41,5.32-7.67,1.73-.58,2.46-2.23,2.86-3.91,1.37-5.75,2.31-11.59,3.69-17.34.6-2.48-.74-4.27-2.53-5.83-4.45-3.87-4.47-4.06-1.21-9a38.74,38.74,0,0,0,5.46-11.14,25.89,25.89,0,0,0,1.82-9.36,8.27,8.27,0,0,0-2.05-5.48c-2.06-2.37-2.15-3.72-.62-6.53a40.32,40.32,0,0,1,4.73-6.92c2.85-3.32,5.11-6.81,3.78-11.52a2.43,2.43,0,0,1,.34-1.85,7.65,7.65,0,0,1,5-2.55c1.92-.22,2.24-1,1.55-2.82a11.66,11.66,0,0,0-1.11-2.13A26.31,26.31,0,0,1,205,173.46a7.65,7.65,0,0,1,2.36-7.18,77.89,77.89,0,0,0,9.76-10.85c1.9-2.49,2.6-2.24,5.76-1.63,6.43,1.25,12.34,4.26,18.86,5.21,3.2.46,6,.16,8.52-2s4.92-3.23,8-1.3a4.64,4.64,0,0,0,2.82.25,42.43,42.43,0,0,1,10.49.67C273.53,157,274.8,157.8,275,159.9Z" transform="translate(-0.39)"/><path class="cls-2" d="M233.7,354.31a8.78,8.78,0,0,1-.61,7.39c-7.12,11.73-14,23.64-21.48,35.09-4.19,6.36-9.56,11.94-14.39,17.88-1.59,1.9-3.59,3.45-4.91,5.59a20.08,20.08,0,0,1-2.35,2.61c-6.4,7.44-13.21,14.55-18.18,23.12-1.28,1.16-1.41,2.85-1.8,4.33a122.78,122.78,0,0,1-5,15.17c-1.49,3.72-1.7,7.79-2.84,11.62-.62,1.53-.89,3.18-1.42,4.74-2.16,2.58-1.88,5.7-1.91,8.75,0,3.81-.55,7.6-.51,11.43,0,2-.78,2.6-2.67,2.41-2.85-.28-5.68-.65-8.19-2.23-1.4-.88-3.35-.55-4.51-2a34.28,34.28,0,0,1-2.83-4.83,31.9,31.9,0,0,1-2.63-6.17c-2.42-8.65-6.19-16.79-9.49-25.1a19.64,19.64,0,0,1,.09-15.76,74.61,74.61,0,0,0,3.61-12.17,6.75,6.75,0,0,1,4.42-5.22c2.46-.94,4.79-2.25,7.32-3,8.22-2.44,9.06-15.07,2.8-19.71-.9-.66-1.75-1.4-2.62-2.1a10.27,10.27,0,0,1-3.66-6,28.76,28.76,0,0,0-3.55-9.86c-1.49-2.36-.74-5.21,2-8,1.67-1.7,3.2-3.5,3.39-5.9.17-2.23.4-4.45.6-6.67.52-5.57.71-11.15,1.11-16.72.54-7.74,5.33-13.35,10.92-18.23a32,32,0,0,1,7.88-5,3.2,3.2,0,0,1,3.78.42c2.93,2.68,6.46,4.41,9.91,6.25,2.75,1.47,5.49,3,8.13,4.63,1.82,1.15,3.6,2.37,6,1.55,1-.35,1.82.42,2.51,1.1,3.35,3.3,7.41,5.57,11.43,7.86a10.35,10.35,0,0,0,8.31,1.22c1.57-.33,1.62-1.83,2.24-2.9,1.52-3.77,2.23-7.77,3.4-11.64,1.61-5.32,3.32-10.61,4.93-15.93a9.23,9.23,0,0,0,1.29-3.66c1-3.23,2.89-6.25,2.55-9.84-.28-.92-.63-1.81-.94-2.72-.37-3.12,2.09-4,4.14-5.16a21.34,21.34,0,0,1,3.35-1.31c4.27-1.16,7.63,1.6,8.68,5.82,1.68,6.72-1.07,12.57-2.67,18.65a84.16,84.16,0,0,1-5.88,16.15c-1.56,3.12-1.19,6.5-.5,9.81C233.24,351.5,233.51,352.9,233.7,354.31Z" transform="translate(-0.39)"/><path class="cls-2" d="M33.08,421.07l-4.8-9.65c-.61-1.37-1.46-2.62-2-4a4.39,4.39,0,0,1,.91-5.24,2.62,2.62,0,0,1,2.85.26,7.41,7.41,0,0,0,3.3,1.08c2.07.12,4.14.06,6.21.05a9,9,0,0,1,4.15.91c4.29,2.15,8.41.5,12.51-.64,1.12-.32,1.62-1.49,2.1-2.5.86-1.79,2.22-2.76,4.21-2.36s3.26-.61,3.19-2.46c-.19-4.84,2.15-7.36,6.72-8.21a3.34,3.34,0,0,0,1-.6c.91-.45,1.75-1.12,1.67-2.14-.35-4.8,3-7.54,5.82-10.5,4.21-4.46,8.63-8.74,13-13.05,2.16-2.14,3.74-4.49,4-7.67.13-1.89,1.36-3.57,1.5-5.51.91-2.22,2.07-4.31,2.9-6.57,1.71-4.7,5.29-7.51,9.73-9.32a19.07,19.07,0,0,0,9.83-8.32c2.63-4.55,7.1-7.26,11.45-10,3.4-2.12,6.8-4.2,9.14-7.59a3.29,3.29,0,0,1,2.92-1.35c4.64,0,9.27-.05,13.9,0a6.16,6.16,0,0,1,1.42.2c1.3.35,2.53.9,2.68,2.38s-1.33,1.77-2.39,2.21a17.71,17.71,0,0,1-3.23.88c-1.57.33-2.65,1.12-2.66,2.88s.49,3.3,2.44,3.94a36.44,36.44,0,0,0,4.25.67c3.09.66,3.6,1.31,3.14,4.41-.26,1.72.34,3.85-2,4.67-8.34,3.41-14.29,9.47-18.73,17.12a15.67,15.67,0,0,0-2,7.33c-.18,4.38-.6,8.75-1.13,13.1a67,67,0,0,0-.27,6.93,13.11,13.11,0,0,1-3.67,9.1c-3.46,3.66-3.81,6.34-1.38,10.8a19.08,19.08,0,0,1,2.29,6.76c.15,1.24-.29,2.25-1.7,1.84-3.57-1-5.52,1.23-7.49,3.46-2.11,2.39-2.78,2.57-5.24,1.17-.49-.41-.93-.88-1.4-1.31a5.06,5.06,0,0,0-6.35-.9c-3.43,1.75-3.71,1.66-6.32-1.24-1.43-1.59-2.87-2.12-4.82-.91a8.92,8.92,0,0,1-6.48,1c-3.43-.61-4.83.3-6,3.51-1.83,4.82-6.14,7.68-11.84,7.81-2.15.06-4.3-.11-6.35.85a4,4,0,0,0-2.57,2.63,44.13,44.13,0,0,0-.18,7.62c.05,7.56-.21,15.11.14,22.66.21,2.15,1.76,3.7,2.55,5.59a13.91,13.91,0,0,1,.14,2.74c-1.17,5.26-1.85,10.66-4.55,15.48-1.32,2.36-2.24,2.7-4.56,1.75-5.62-3.77-10-8.83-14.56-13.73a90,90,0,0,1-8.65-10.84c-2.4-3.54-2.27-4.33.81-7.2a2.27,2.27,0,0,0,.72-2.95,20.77,20.77,0,0,0-2-3.55,60.7,60.7,0,0,1-6.91-11.43A8,8,0,0,0,33.08,421.07Z" transform="translate(-0.39)"/><path class="cls-2" d="M287,62.89A101.89,101.89,0,0,0,279.57,81a6.21,6.21,0,0,0-.06,2.61c.58,4.34,1.23,8.68,1.62,13a12.92,12.92,0,0,0,3.4,7.74c2.08,2.31,4.17,4.62,6.35,6.85,1.32,1.35,1.86,2.75.93,4.51-2.83,3.33-4.09,7.25-4.95,11.51a60.11,60.11,0,0,1-7.41,18.38,85.09,85.09,0,0,0-4.31,7.76,3.5,3.5,0,0,1-4.26,2.23,50,50,0,0,0-11.45-.84,8,8,0,0,1-3.27-.65,5.46,5.46,0,0,0-6.26,1c-3.73,3.71-8.11,3.6-12.51,2.21s-8.88-2.68-13.37-3.82c-2.57-.65-4.75-2.32-7.4-2.73a8.66,8.66,0,0,0-6.18-.31c-4.93,1.63-10.11-1.6-11.56-6.62-.47-1.65.17-2.89,1.11-4.18,2.81-3.86,5.8-7.58,8.87-11.24a15.76,15.76,0,0,0,3.3-6.55,27,27,0,0,0,.77-3.87A33,33,0,0,1,215,111.4a16,16,0,0,1,12.18-11,39,39,0,0,0,7.71-3.25,10.26,10.26,0,0,0,4.68-4.3,4.28,4.28,0,0,0,.36-3.63,6.38,6.38,0,0,1,.06-3,4.3,4.3,0,0,1,1.93-2.35c4.53-3,9.45-5.36,13.66-8.84,1.58-.18,2.52-1.32,3.54-2.36a21.12,21.12,0,0,0,8.43-6.54,2.29,2.29,0,0,1,2.25-1.1,6.19,6.19,0,0,0,6.57-3.49c2.95-5.6,8.7-6.94,13.65-9.53a1.24,1.24,0,0,1,.47-.11c1.09-.07,2.47-.53,3.11.55s-.47,1.91-1.14,2.65A47.27,47.27,0,0,0,287,62.89Z" transform="translate(-0.39)"/><path class="cls-2" d="M64.19,186.8c4.1-5.89,6.23-12.67,8.6-19.32a81.68,81.68,0,0,1,6-13.74,1.13,1.13,0,0,1,1.3.32c3.44,3.15,7.77,5,11.44,7.81a26.26,26.26,0,0,0,10.25,4.37A6.79,6.79,0,0,0,107,165.1c3.29-1.94,6.53-4,10.21-5.14,3.26,1.2,6.77,1.87,9.23,4.69a3.64,3.64,0,0,0,3.54,1,10.5,10.5,0,0,1,5.65.63,10.57,10.57,0,0,0,6.14.44,5.32,5.32,0,0,1,4.68,1.11c2.75,2.11,5.29,2.07,8.1-.14a7.92,7.92,0,0,1,5.45-2.06,3.39,3.39,0,0,0,3-1.63,7.57,7.57,0,0,1,4.6-3.2A15,15,0,0,0,171,159a48,48,0,0,1,8.15-4.05,11.46,11.46,0,0,0,6.1-4.78c.72-1,.87-2.31,1.81-3.18A21.52,21.52,0,0,1,193.4,145a4,4,0,0,1,4.56,1.85c2.88,4.95,7.12,6.6,12.62,5.27a11.64,11.64,0,0,1,1.67,0c1.07.09,2.42-.32,2.95,1s-.46,2.11-1.12,3a55.54,55.54,0,0,1-9.35,10.2,6,6,0,0,0-2,4.68,24.3,24.3,0,0,0,2.62,12c1.9,3.82,1.9,3.82-1.68,6.26a8.54,8.54,0,0,0-.73.62,3.45,3.45,0,0,1-1,.64,4.07,4.07,0,0,1-2.27.1c-3.65-.63-7.33-.32-11-.24-3.28.07-5.46-1.06-6.87-4.08-1.55-3.34-4.29-5.71-7.24-7.82a2.9,2.9,0,0,0-3.56-.1c-3.13,2.09-6.27,4.14-10,5a2.91,2.91,0,0,0-1.91,1.73,6,6,0,0,1-4.27,3.5,5.36,5.36,0,0,0-2.09,1.15,3.7,3.7,0,0,1-4.37.86,2.44,2.44,0,0,0-3.3,1.1c-1.63,2.63-3.81,3.33-6.76,2.3-2.79-1-5.21-.31-6.81,2.38-1.05,1.77-2.2,2.2-4.32,1.28-4.55-2-7.65-.15-9.38,5.06a11.7,11.7,0,0,0-3.19,7c-.29,2.62-2,4.61-3.86,6.45a2.19,2.19,0,0,1-1.45.78c-5.45,0-11,.75-15.86-2.77-3.6-1.79-6.2-4.88-9.36-7.25-2.11-1.59-4.82-2.1-7-3.69-.83-.62-1.75-1.12-2.56-1.78A14.32,14.32,0,0,0,69.85,198,3.71,3.71,0,0,1,67.31,195a6.51,6.51,0,0,0-.13-2.91c-.15-1.36-.21-2.77-1.63-3.55C64.94,188.09,64.09,187.81,64.19,186.8Z" transform="translate(-0.39)"/><path class="cls-2" d="M227.11,1.06a15.33,15.33,0,0,0,2.15-.12c5.25-1,8.36,1.83,9.79,6.23s3.75,6.57,8.19,6.9c1.23.09,1.86,1,2.57,2.15,3.62,5.65,8.29,9.8,15.48,10.21a26.41,26.41,0,0,1,9.87,2.65,24,24,0,0,0,8.32,2.1,9.83,9.83,0,0,1,8.72,6.48c1.19,2.84,2.8,4.53,5.89,5.24,3.89.9,4.85,2.45,4.72,6-2.26,1.56-4.62,2.44-7.39,1.32a4.43,4.43,0,0,0-2.6-.23c-6.71,1.46-12.93,3.82-17,9.77-1.7,2.47-3.4,4.44-6.86,3.16-1.34-.5-2.18.74-2.85,1.74A25.46,25.46,0,0,1,258,72.36,12.62,12.62,0,0,0,253.5,75a89.45,89.45,0,0,1-10,6.09c-4,2.1-6.41,4.93-5.69,9.75a4,4,0,0,1-2.22,4.2c-4.81,2.76-10,4.56-15.21,6.47-2.11.77-3.24-.83-4.18-2.38A36.24,36.24,0,0,1,210.55,82a11.69,11.69,0,0,0-.11-1.19c-.53-4.1-.76-4.22-4.65-3.13a11.74,11.74,0,0,1-5.71,0c-2.32-.5-3.87-1.75-4.15-4.3a13.08,13.08,0,0,0-3-6.66c-1.85-2.37-3.43-4.93-1.78-8.12a7.64,7.64,0,0,1,3.68-2.12,12.92,12.92,0,0,0,8-12.94,4.29,4.29,0,0,0-.79-2.24c-2.8-3.4-5.6-6.83-10.25-7.8l-.7-.16c-.84-.23-1.92-.28-1.95-1.41s1-1.13,1.71-1.39a90.28,90.28,0,0,0,8.31-3.66,9.73,9.73,0,0,0,5.63-6.41,16,16,0,0,1,6.67-9.06c4.18-2.9,8.15-6.12,12.49-8.81A25.7,25.7,0,0,1,227.11,1.06Z" transform="translate(-0.39)"/><path class="cls-4" d="M79.69,151.25c-.1-2.1,1.44-3.49,2.31-5.15,3.35-6.35,6.58-12.78,10.23-19,2.48-4.18,6-7.65,9.44-11.08a10.49,10.49,0,0,1,6.1-2.55,8.47,8.47,0,0,0,6.4-4.47,43.52,43.52,0,0,1,7.22-9.17c1.27-1.61,2.42-.91,3.51.22.86.89,1.24,2.21,2.49,2.75,2.88.71,5.37,2.39,8.19,3.27a10.93,10.93,0,0,1,4.13,2.79,86.81,86.81,0,0,0,13.5,10.3c3.15,2,7.11,2.29,10.66,3.47,3,1,6,1.67,9,2.41a9.31,9.31,0,0,1,4.59,2.45c2.56,2.63,4.86,5.51,7.15,8.36s1,6.31.05,9.39a14.74,14.74,0,0,1-2.51,4.34c-5.79,4.09-11.44,8.42-17.77,11.71a9.47,9.47,0,0,0-2.37,1.59,3.69,3.69,0,0,1-3.49,1.14c-1.94-.4-3.4.46-4.72,1.75-2.62,2.54-4.68,2.58-7.13,0a3.61,3.61,0,0,0-3.63-1.22,12.3,12.3,0,0,1-6.61-.42,7.48,7.48,0,0,0-4.27-.07,5.52,5.52,0,0,1-5.63-1.78c-.28-.29-.57-.56-.86-.84-3.53-3.47-4.9-3.71-9.36-1.68-1.87,1.06-3.68,2.21-5.62,3.15-1.53.73-3,1.52-4.75.78a1.45,1.45,0,0,0-1.38.13c-1.19.8-2.28.42-3.35-.23a7.68,7.68,0,0,0-4.54-1.21c-2,.13-3.46-1-5.14-1.69A26.55,26.55,0,0,1,81,153.21C80.47,152.6,79.78,152.13,79.69,151.25Z" transform="translate(-0.39)"/><path class="cls-5" d="M74.85,201.15a72,72,0,0,0,8.31,4.56,11.08,11.08,0,0,1,5,4.2c.71,1.14,2,1.53,3.11,2.09.84.43,1.78.73,2.22,1.68.17.85,1.08,1.06,1.56,1.58-.52.88-1.25.84-2,.86A6.37,6.37,0,0,1,90.27,215a5.12,5.12,0,0,0-3.2-.78c-2.81.31-3.2.89-2.73,3.66a42.83,42.83,0,0,0,2.37,9c1.2,3,.89,6.12.55,9.23-.14,1.19-.22,2.38-.26,3.58a3.55,3.55,0,0,0,2.28,3.81,6,6,0,0,1,3,3A2.71,2.71,0,0,0,95.65,248c1.81-.5,3.5-.6,4.55,1.4a4.76,4.76,0,0,1-.89,5.33,2.39,2.39,0,0,1-.87.81c-4.49,1.62-4.11,5.57-4.31,9.15a12.76,12.76,0,0,1-.66,4.22c-1.1,2.62-.64,5.36-.64,8.06a1.76,1.76,0,0,0,1.63,1.78c3.17.65,6.38,1,9.39-.47,3.61-1.81,6.7-1.46,9.55,1.49,1.72,1.79,4.13,2.38,6.4,3.14,3,1,5.22,2.72,6.11,5.88.11.39.35.8.26,1.16-.86,3.42,1.29,5.47,3.3,7.67,1.24,1.35,2.52,2.67,3.66,4.12a3.53,3.53,0,0,0,2.91,1.44c7-.19,14,1.27,21,1.07a7.75,7.75,0,0,0,6.84-3.61,56.82,56.82,0,0,0,3.94-6.57c.64-1.32,1.43-2.53,3.06-2.77a30.78,30.78,0,0,0,3.31-.28c.76-.18,1.6-.26,2,.72a1.64,1.64,0,0,1-2.12.72c-1.16.32-2.34.67-2.85,1.9-1.52,3.69-4.12,6.7-6.24,10-.11.21-.23.22-.34,0-.15-.72-.53-.8-.84-.17-.58,1.15,0,2.13.59,3.11,1.46,2.28,1.22,2.85-1.43,3.62-1.46.42-2.91.84-4.37,1.24-2,.54-2.82,1.67-2,3.71.61-.38,0-1.3.72-1.64.13.06.37.12.37.18,0,1.7,1,2.4,2.55,2.47a5.94,5.94,0,0,1,.71.08c6.31,1,6.37,1,6.4,7.37a6.58,6.58,0,0,0,3.66,6c5.53,3.2,11.33,5.92,16.62,9.53a2.41,2.41,0,0,0,2.5.21c1.79-.82,3.22-.14,4.51,1.16a46.52,46.52,0,0,0,12,8.28c2.16,1.12,4.43,1.88,6.89.9a.4.4,0,0,1,.64,0c.4,1.06-.49,1.56-1,2.24-3.22,1.43-6.3.69-9.14-.94-4.06-2.33-8.2-4.61-11.45-8.12a3.12,3.12,0,0,0-3.47-.95,4.69,4.69,0,0,1-4.29-.9c-4.31-3.05-9.15-5.19-13.69-7.84-1.8-1-3.69-2-5-3.6-.83-1-2-.89-3-1.23-.52-.45-.93-.92-.43-1.63a2.4,2.4,0,0,0,1.53-2.6c0-5.09.1-5.09-5.14-5.66-3.36-.37-4.72-1.75-4.74-4.83a3.2,3.2,0,0,1,2.78-3.58c1.55-.32,3.08-.77,4.62-1.19.53-.14,1.18-.29,1.23-1a1.76,1.76,0,0,0-1.05-1.74,6.15,6.15,0,0,0-2.78-.58q-6.84,0-13.66-.12a2.45,2.45,0,0,0-2.48,1.05c-2.1,3.36-5.33,5.43-8.62,7.42-5.51,3.33-10.66,7-13.83,12.89-1.53,2.87-4.43,4.38-7.35,5.5-5.56,2.14-9.51,5.64-11.21,11.53a25.39,25.39,0,0,1-2.3,4.45c-.3,1.5-.71,2.56-2.59,1.43-1.31-.79-2.92-.24-4.38-.38-1.23.06-2-.75-2.85-1.53-1,.79-1.08,2.05-2.15,2.65-2.52,1.4-5,.89-6.28-1.78-2.07-4.41-4.24-8.76-6.58-13a3.47,3.47,0,0,1,.39-4.24c1.19-1.36.8-2.46-.57-3.39-2.7-1.82-4.49-4.5-6.54-6.94-.39-.9-.54-1.71.75-2,1.16.05,1.81.92,2.55,1.63,2.08,2,4,4.11,6.25,5.93,1.82,1.46,2.11,3,.8,5.07-1.08,1.68-.86,3,.08,4.62,1.84,3.17,3.37,6.52,5,9.81,1,2,1.88,2.12,3.21.28a14.51,14.51,0,0,1,1.88-2.47c1.56-1.36,2.61-1.17,3.58.66,1.39,2.61,4.5,2.77,6.29.22a27.9,27.9,0,0,0,3-6,11.26,11.26,0,0,1,5.62-6.26l3.63-1.83a23.43,23.43,0,0,0,10.49-9.42c2.62-4.56,7.5-6.79,11.81-9.52a6.59,6.59,0,0,0,3.06-2,34,34,0,0,0,3.08-2.66c.37-.41.92-.8.7-1.42S139,306,138.5,306c-.88,0-1.76,0-2.63,0a7.38,7.38,0,0,1-5.6-2.84,58.37,58.37,0,0,0-5.71-6.45,5.21,5.21,0,0,1-1.62-5,4.33,4.33,0,0,0-3-5.33c-2.66-1.08-5.46-1.8-8-3.12-1.09-.55-1.66,0-1.85,1.05-.09.47-.07,1-.13,1.43-.31,2.55-1,3.06-3.66,2.65a4.24,4.24,0,0,0-4-.73,2.67,2.67,0,0,1-.94.11c-.86,0-2.08.22-2.33-.68-.31-1.07,1-1.07,1.71-1.5a8.36,8.36,0,0,1,4.49-.25c.75.13,1.51,0,1.78-.82.36-1.13.94-2.4.52-3.47-.31-.78-1.47-.22-2.15.1a15.07,15.07,0,0,1-7,1.43c-2.24-.07-4.37-.78-6.63-.87-1.73-.06-2.07-1.77-2.18-3.26a39.61,39.61,0,0,1,.67-10c.47-2.52.76-5.05,1.06-7.59.34-2.8-.42-3.6-3.24-3.71q-12.45-.51-24.81-2a23.44,23.44,0,0,1-5.56-1.43,23.39,23.39,0,0,0-16.4-.28c-1.37.47-2.72,1-4.11,1.34a11.56,11.56,0,0,1-8-.41c-3.49-1.61-3.57-1.56-6,1.44a13.32,13.32,0,0,0-2.6,3.19,2.25,2.25,0,0,1-.45.52.94.94,0,0,1-1,0,20,20,0,0,1,5.06-7.74A36.26,36.26,0,0,0,32.56,237a46.63,46.63,0,0,1,7.68-14.72,1.08,1.08,0,0,1,.38.65c0,1.61-1.08,2.81-1.82,4.1a57,57,0,0,0-5.48,12.21,29.55,29.55,0,0,1-4.19,9.1c-1.06,1.47-.54,2.27.9,3a7.89,7.89,0,0,0,5.33.67c3.67-.81,7-2.56,10.82-3.08a14.25,14.25,0,0,1,6.63.22c8,2.78,16.45,3.11,24.73,4.33,5.08.74,10.22.07,15.29.83a5.27,5.27,0,0,0,3.85-1.07,1.37,1.37,0,0,0,.68-1.43c-.2-.76-.86-.64-1.39-.54-2.9.56-5-.55-6.38-3.08a5.39,5.39,0,0,0-2.5-2.17c-2.82-1.31-3.65-3.6-3.33-6.51.15-1.42.5-2.82.52-4.27,0-3.92.06-7.75-1.78-11.46-1.31-2.62-1.15-5.77-2.15-8.57-.54-1.52.6-2.32,1.88-2.86.84-.36,2.09-.4,2.06-1.65s-1.16-1.43-2-1.86c-2.06-1-4.39-1.57-6.08-3.28-.6-.89-1.33-1.69-2-2.54S73.54,201.37,74.85,201.15Z" transform="translate(-0.39)"/><path class="cls-6" d="M163.16,328.85c1,0,2.12-.24,2.88.74,2.1,2.69,5.25,3.82,8.07,5.41A121.15,121.15,0,0,1,185,341.36a4.12,4.12,0,0,0,3.83.76,4,4,0,0,1,4.49,1.34c3.3,3.7,7.63,5.94,11.86,8.3a9.14,9.14,0,0,0,7.83.6.58.58,0,0,1,.08.9,10.6,10.6,0,0,1-9.23-1c-4.29-2.45-8.71-4.78-12.1-8.51a1.54,1.54,0,0,0-2.08-.45,3.75,3.75,0,0,1-3.87-.42c-5.54-3.66-11.63-6.37-17.27-9.87-.54-.34-1.24-.58-1.57-1.07-1.91-2.86-4.05-1.92-6.37-.6a35.38,35.38,0,0,0-15.09,15.9,17.15,17.15,0,0,0-1.57,7.68c.14,7.29-1.17,14.47-1.56,21.73a7.19,7.19,0,0,1-2.72,5.18,11.09,11.09,0,0,0-2.77,3.57,4.49,4.49,0,0,0,.31,5.16c2.07,2.77,2.63,6.14,3.32,9.41a9.59,9.59,0,0,0,3.72,5.93c3.17,2.4,6.34,5,6.55,9.29.32,6.72-.43,10.69-7.28,13.45-2.66,1.07-5.28,2.26-8,3.3a4.68,4.68,0,0,0-3,3.48,118.84,118.84,0,0,1-4.87,16,14.76,14.76,0,0,0,.4,11c4.16,10.78,8.26,21.58,12.38,32.37a4.11,4.11,0,0,1,.13.7,10.73,10.73,0,0,0,2.46,4.31c4.09,2.23,8.33,4,13.06,4.24,1.24.08,1.75-.45,1.72-1.67a69.51,69.51,0,0,1,.86-13.36c0-.08.06-.18,0-.23-2.08-3,.67-4.91,1.6-7.22.92-1.34,1-2.94,1.35-4.43a74.7,74.7,0,0,1,4.79-16.82c1.77-3.95,2.6-8.32,3.83-12.5.24-.84.22-1.82,1.48-1.75-1.58,5.33-3.14,10.66-4.78,16a10.26,10.26,0,0,0-.49,3.76,30.77,30.77,0,0,1-.49,6.64c-.23.84.76,2.14-.92,2.42-.51,3.23-3,5.55-3.86,8.62a5,5,0,0,0-1.88,4.43c0,4.62-.15,9.22-.5,13.83-.19,2.54-.79,3.32-3.27,3.33a15.92,15.92,0,0,1-7.74-2.07,4.24,4.24,0,0,0-2.45-.8,8.31,8.31,0,0,1-7.69-6.91c-.22-1-.34-2.05-.58-3.06a3.73,3.73,0,0,0-2.39-2.76c-3.09-1.26-3.68-2.27-3.77-5.58,0-.91.6-2-.47-2.77l-2.22-10.16a15.2,15.2,0,0,0-1.54-7.81,16.49,16.49,0,0,1-.24-12.82,92.06,92.06,0,0,0,4-13.08,9.65,9.65,0,0,1,6.88-7.83,55.49,55.49,0,0,0,7.92-3.45,6.58,6.58,0,0,0,2.13-1.53c2.81-3.38,2.25-12-1.32-14.54a19.35,19.35,0,0,1-8.18-13.78c-.24-1.77-1.33-3.24-2.1-4.82-1.79-3.73-1.57-5.8,1.33-8.64A14.44,14.44,0,0,0,141.36,372c.08-7.21,1.36-14.31,1.59-21.51a11.3,11.3,0,0,1,1.85-5.4c3.75-6.28,8.51-11.58,15-15.16A5.29,5.29,0,0,1,163.16,328.85Z" transform="translate(-0.39)"/><path class="cls-7" d="M202.5,189.62c.21-1.19,1.3-1.38,2.14-1.68,1.9-.67,2-1.64,1-3.23A24,24,0,0,1,202.06,171a6.8,6.8,0,0,1,2.81-5.75c3.86-2.93,6.6-6.9,9.54-10.68.35-.43.8-.87.44-1.48s-1-.4-1.52-.42c-.88,0-1.75-.06-2.63-.08-1.41-1-1.12-1.7.34-2.22,1.78-.63,3.6,0,5.4-.11a4.16,4.16,0,0,1,2.33.31c6.43,3.36,13.64,4.28,20.44,6.5a9.22,9.22,0,0,0,10.13-2.34,5.82,5.82,0,0,1,7.27-1.11,4.74,4.74,0,0,0,2.53.55,38.69,38.69,0,0,1,11.89.86c1.13.28,2.37.44,3.09-1,3.62-7.35,8.35-14.15,10.86-22.07.89-2.83,1.31-5.74,2-8.59.78-3,1.85-5.94,4.79-7.65a3.7,3.7,0,0,1-.56,2.52c-2.19,3-2.64,6.56-3.29,10.07-.57,3.06-2.61,5.61-3,8.74-.55,4.24-3.72,7.1-5.64,10.62-2.1,3.84-4.26,7.67-4.34,12.22a3.63,3.63,0,0,0-3.25-2.58,35.89,35.89,0,0,0-11.41-.61,4.45,4.45,0,0,1-3.17-.75c-1.6-1.05-3.28-1.18-4.6.19-4.26,4.42-9.32,4.19-14.64,2.79a12.73,12.73,0,0,1-3.43-1c-4.12-2.51-9.17-1.91-13.38-4.12-1.21-.64-2.16.25-2.86,1.16a83.61,83.61,0,0,1-11,12.28c-1.7,1.51-1.95,3.68-1.68,6,.51,4.3,2.3,8.06,4.37,11.79,2,3.56,1.6,4.21-2.33,4.56-1.66.15-2.64,1.38-4,2a.6.6,0,0,1-.69.07A2,2,0,0,1,202.5,189.62Z" transform="translate(-0.39)"/><path class="cls-8" d="M181.89,149.35c1.27-2.78,3.16-5.29,3.28-8.56.06-1.72.22-3.52-1.06-4.73-2.54-2.44-4.43-5.42-6.87-7.94a8.52,8.52,0,0,0-4.08-2.34c-6.06-1.63-12.14-3.23-18.14-5-3.81-1.16-6.51-4.21-9.7-6.4a45.14,45.14,0,0,1-6.78-5.66c-1.36-1.39-3.18-2-5-2.64-2.17-.83-4.26-1.91-6.44-2.75,0-.09,0-.18.07-.28.36-.68,0-1.35-.06-2a9.3,9.3,0,0,1-.08-1.67c.71-3.62,2.13-6.88,5.13-9.19,2.65-2.05,5.48-3.38,8.75-1.06.3-4.3-1.12-6-5.18-6.34-3.66-.27-6.87-1.38-9.18-4.4a2.75,2.75,0,0,1-.89-1.54c1.22-1.18,1.82-2.91,3.4-3.76a2.07,2.07,0,0,1,.66,1.31c.9,3.13,2.06,4.09,5.2,4.29,5.66.36,8.41,2.6,9.82,8,.34,1.32.88,2.57,1.24,3.88.47,1.73.31,3.4-1.31,4.49s-2.87.22-4.11-.79c-3.79-3-5.86-2.64-8.3,1.65a13.06,13.06,0,0,0-.82,1.73c-1.49,3.9-1.19,4.76,2.77,5.66,4.15.94,7.11,3.64,9.92,6.43C150.28,115.77,157.77,119,166,121c2.25.53,4.48,1.19,6.74,1.66a14.39,14.39,0,0,1,8.78,5.83c1.71,2.29,3.19,4.79,5.61,6.49a2.39,2.39,0,0,1,.93,2.56,24.84,24.84,0,0,0-.21,3.1c-.63,1-.5,2.17-.77,3.25-.07.3-.32.69-.16.89,1.58,1.84.24,2.47-1.22,3.08-1.15.42-1.31,1.51-1.62,2.47-.39,1.24-.79,2.45-2.18,2.91a.84.84,0,0,1-1-.43C180.16,151.34,181.23,150.4,181.89,149.35Z" transform="translate(-0.39)"/><path class="cls-9" d="M129.1,74.5c0-.49,0-1,0-1.48,4-5,7.59-10.4,11.64-15.42a38.62,38.62,0,0,1,11.11-9.3c6.54-3.72,12.37-8.43,18.55-12.64a12.78,12.78,0,0,1,5.27-2c2.34.37,4.36-1,6.59-1.25,1.18-.14,2.38-.47,3.48,0s1.52,1.24-.07,1.76c-6.21.33-12.39,1.21-17.31,5.32-5.67,4.75-12,8.41-18.19,12.37-2.87,1.84-5.09,4.35-7.41,6.75-1.2,1.24-.93,2,.74,2.2,4.3.46,8.13,2.26,12,3.87,4.71,2,7.87,5.69,10.8,9.56,2.79,3.69,5.53,7.25,10.32,8.41a1.27,1.27,0,0,1,.69.64c-.15,1.19,1,2.16.55,3.41-2.65.87-4.7-.23-6.56-2-.22-1-.75-1.45-1.79-1-2.34-.64-3.57-2.57-5-4.27-2.4-2.86-4.16-6.26-7.32-8.47a40,40,0,0,0-16.15-6.29,4.51,4.51,0,0,0-4.78,2.53,40.32,40.32,0,0,1-3.65,5A5.2,5.2,0,0,1,129.1,74.5Z" transform="translate(-0.39)"/><path class="cls-3" d="M64.88,472.31c1.75,1.14,2.84.51,3.85-1.18,2.41-4.05,3-8.65,4.15-13.07.23-.84.43-1.69.64-2.54a5.07,5.07,0,0,0-.07-2.81c-1.12-1.44-2.53-2.73-2.46-4.79a4.69,4.69,0,0,1-.21-2.35q0-13.51,0-27a4.69,4.69,0,0,1,.21-2.35c1.19-2.8,3.85-3,6.29-3.32,2.19-.28,4.47.16,6.65-.5,3.65-1.1,6.39-3.27,7.64-6.95s2.93-4.77,6.66-4a8.29,8.29,0,0,0,6.82-1.18c1.8-1.22,3.25-.56,4.59,1,2.79,3.17,2.82,3.15,6.41,1.3,2.83-1.46,5-.73,7.75,2.63,1.5,2.3,1.78,2.35,3.61.76.49-.44.93-1.15,1.76-.59a.24.24,0,0,1,.05.19.85.85,0,0,1-.09.22,2.14,2.14,0,0,1-.1.22c-2.46,3.73-3.08,3.81-6.28.74A22.53,22.53,0,0,0,121,405.1a3.52,3.52,0,0,0-4.6-.15c-3,2.09-5,1.74-7.34-1.27-1.26-1.62-2.55-2-4.27-.79a6.23,6.23,0,0,1-5.68.82c-3.37-.94-4.46-.3-5.63,2.89-1.54,4.2-7,8-11.71,8.15-1.51,0-3,0-4.55,0-3.57.1-4.7,1.26-4.7,4.79l0,24.46c0,1,0,1.92-.08,2.88a12,12,0,0,0,1,2.92l1.9,2.36a6.12,6.12,0,0,1,0,3.47c-1.35,4.65-1.72,9.58-3.84,14-.51,1.07-1,2.13-1.55,3.19a1.62,1.62,0,0,0,.47,2.38,4.19,4.19,0,0,0,2,1c.07.4,0,.68-.48.43-3-.45-5.17-2.45-7.65-3.88C64.24,472.38,64.37,472.12,64.88,472.31Z" transform="translate(-0.39)"/><path class="cls-10" d="M7.18,329.81A104,104,0,0,0,7.51,310c-.35-5.17-.79-10.32-.84-15.51-.1-8.48,2.56-16.26,5.86-23.89.24-.56.45-1.23,1.25-1.29l.21.31a8,8,0,0,1-1,3.89,54.11,54.11,0,0,0-4.71,25.89c.19,2.7.29,2.88,2.69,1.71a4.21,4.21,0,0,1,3.89.05,14.87,14.87,0,0,1,1.45.85c3.48,2.2,4,2.08,5.7-1.56a9.73,9.73,0,0,1,5.25-5,6.07,6.07,0,0,1,3.72-.59,2.88,2.88,0,0,0,3.48-1.82,30.47,30.47,0,0,1,2.25-4.22c1-1.46,2.36-2.44,4.28-1.61a2.58,2.58,0,0,0,3.2-.86c2.58-2.92,6-4.8,9.12-6.94a6.82,6.82,0,0,1,2.82-1.25c3.63-.51,7.29-.13,10.92-.07,2,0,3.25,1.55,4,3.4a16.44,16.44,0,0,0,1.4,2.74c.69,1.42,0,1.75-1.28,1.29a5.07,5.07,0,0,1-1.17-.83c-5-4.48-10.78-5-16.53-1.43a41.52,41.52,0,0,0-7.63,6.16c-1.41,1.42-2.93,2.53-5.09,1.56-1-.45-1.48.18-1.88.94-.64,1.2-1.24,2.42-1.83,3.64a5.08,5.08,0,0,1-5.64,3.08c-3.65-.41-4.75.28-6.27,3.72A10,10,0,0,1,23.45,305c-2.68,3-4,3.25-7.38,1a6.21,6.21,0,0,0-4.66-1.4c-1.76.28-2.74,1.1-2.66,3,.11,2.63.78,5.24.47,7.88-.48,4-.06,8.1-.37,12.14-.06.84-.06,1.8-1,2.33A.73.73,0,0,1,7.18,329.81Z" transform="translate(-0.39)"/><path class="cls-2" d="M126.71,77.79c2.78,3.34,6.43,4.45,10.64,4.33a3.43,3.43,0,0,1,3.36,2.29,13.89,13.89,0,0,1,.84,2.73c.17,1,1.16,2.18.13,2.85-.87.57-1.59-.74-2.37-1.22a3.67,3.67,0,0,0-3.44,0c-5,1.82-7.17,5.81-8.29,10.64a1.13,1.13,0,0,1-1.36.27c-1.07-1.23-1.92-2.91-4.06-1.69-.67.38-1.11-.15-1-.84.29-1.31,0-2.73.71-4,.3-2,.7-3.91.87-5.88.25-2.93.51-5.83,2-8.48C125.23,78.14,125.69,77.42,126.71,77.79Z" transform="translate(-0.39)"/><path class="cls-11" d="M7.18,329.81l.54,0c.84,1.05.48,2.29.54,3.46s.3,1.95,1.56,2c3,0,5.7,1.39,8.45,2.43,3,1.13,3.44,1,5.17-1.52,1.08-1.58,2.32-2.85,4.37-2.95a1.36,1.36,0,0,0,1.41-1c1.06-3.5,3.88-5.65,6.45-7.83,3.39-2.87,6.81-5.84,11.27-7a5.25,5.25,0,0,1,1.86-.41,34.72,34.72,0,0,0,14.83-1.41c1.88-.63,4.68,2.09,5.52,4.69-1.24.1-.88.79-.55,1.47-1.4.7-2.07-.48-2.78-1.2A4.16,4.16,0,0,0,61,319.36a16.5,16.5,0,0,1-10.09.68,7,7,0,0,0-5.31.86,48.78,48.78,0,0,0-11.94,9.5,4.29,4.29,0,0,0-1.11,3.5c.23,2.74-.91,3.76-3.53,3.12a3,3,0,0,0-3.46,1.36c-2.67,3.55-3.89,3.86-8.16,2.16-2.6-1-5.16-2.08-8.07-2-1.69.08-2.36.71-2.54,2.41a101.71,101.71,0,0,1-4.07,20.15c-.63,2-.37,3.93-.63,5.89l-.27.27c-1.64-1.51-1.15-3.49-.67-5.12C3.77,353.27,4.46,344,6.58,335A44.38,44.38,0,0,0,7.18,329.81Z" transform="translate(-0.39)"/><path class="cls-12" d="M257.69,72a29.92,29.92,0,0,0,8.42-8.36c.91-1.39,2.17-2,3.89-1.13,1.93,1,3.36,0,4.22-1.56,3.79-6.69,10.21-9.32,17.06-11.32a5.15,5.15,0,0,1,2.82-.18,11.21,11.21,0,0,0,8.71-.53,2,2,0,0,1-1.45,1.46c-5.15,1.19-8.19,4.9-10.91,9a10.94,10.94,0,0,1-3.5,3.5c.26-3.11,2.67-5,4.3-7.24a18.53,18.53,0,0,0,2.3-3.19,4.19,4.19,0,0,0-1.29-.15c-5.55,1.51-11,3.27-14.45,8.35-2,3-4.05,5.61-8.19,4.86-.87-.15-1.34.41-1.73,1a17.57,17.57,0,0,1-8.6,6.54C258.29,73.41,257.65,73.22,257.69,72Z" transform="translate(-0.39)"/><path class="cls-3" d="M185.22,33.66c.3,0,.75,0,.89-.14.34-.44-.22-.49-.42-.56a8.5,8.5,0,0,0-3.95,0c-2,.27-3.91,1.89-6.09.72,4.66-1.6,9.65-1.87,14.33-3.42a68,68,0,0,0,10.45-4.69c1.43-.76,2.95-1.87,3.19-3.41,1-7,6.38-10.31,11.31-14a88.8,88.8,0,0,1,9-6.23,4.53,4.53,0,0,1,3.15-.82C221.87,4.7,216.6,8.3,211.4,12a16.76,16.76,0,0,0-6.51,9.23,9,9,0,0,1-4.79,5.66,57,57,0,0,1-9.62,4.27c-.45.13-1.06.18-1.08.76,0,.77.68.76,1.22.8,5.19.46,8.31,4.1,11.52,7.55a4.49,4.49,0,0,1,1.17,3.33c-.4,5.55-1.95,11.79-8.77,13.64a22.48,22.48,0,0,0-3.07,1.34c-.47-1.93,1.17-2,2.24-2.37,3.45-1.22,6-3.32,7.21-6.84a13.41,13.41,0,0,0,.79-6.79c-.65,1.28-.37,2.23-.52,3.1s.19,1.87-1.17,1.93a3.61,3.61,0,0,1-.51-2.74c.22-2.6-1-4.38-3-5.8a31,31,0,0,0-9.29-4.14C186.45,34.7,185.35,34.9,185.22,33.66Z" transform="translate(-0.39)"/><path class="cls-13" d="M79.69,151.25a10.46,10.46,0,0,1,1.6,1.43c3.35,4.48,8.36,6.46,13.12,8.84a5,5,0,0,0,2.59.28,7.31,7.31,0,0,1,4.3,1.16c1,.61,2.09,1.79,3.17,0a.91.91,0,0,1,.88-.16c3.39,1.78,5.65-.85,8.27-2.08.85-.41,1.47-1.25,2.49-1.33.81-.25,1,.18,1,.87-3.56,2-7.11,3.94-10.68,5.88a6.84,6.84,0,0,1-5.07.62,30.13,30.13,0,0,1-11.19-5.15c-3.72-2.71-7.91-4.77-11.36-7.89C78.85,152.83,76.39,151,79.69,151.25Z" transform="translate(-0.39)"/><path class="cls-14" d="M233.7,354.31c-1.79-4.69-2.85-9.54-.64-14.28,4.26-9.1,6.86-18.72,9.06-28.43a11.2,11.2,0,0,0-2.08-9.24c-2.27-2.85-4.45-3-7.92-1.58-.73.31-1.48.58-2.22.87-.41-.54,0-1.06,0-1.59,3.77-3.65,6.74-3.66,10.76-.13a4,4,0,0,0,3.14.62c-1.44,2.18-1.51,4.43-1.08,7,.7,4.23-.36,8.35-1.67,12.41-2.25,7-4,14.09-7.19,20.72-1.81,3.71-.74,7.62,0,11.42C234,352.89,234.48,353.64,233.7,354.31Z" transform="translate(-0.39)"/><path class="cls-15" d="M40.31,222.84c0-.2-.05-.4-.07-.6,2.26-3.71,5.27-6.88,7.61-10.56a86,86,0,0,0,7.84-15.23,36,36,0,0,1,6.66-10.65,5.62,5.62,0,0,0,3.38,2.39c2.23.55,1.78,2.33,1.8,3.9.13.93,0,1.87.06,2.81a4.26,4.26,0,0,0,3,2.8,8.12,8.12,0,0,1,4.29,3.45c-.49.51-1,.93-.13,1.63s1.51,1.11,1.56,2.16c-1.46.83-2-.46-2.65-1.25a10.11,10.11,0,0,0-4.31-3.35c-3.41-1.28-4.84-3.7-4.7-7.23a3.52,3.52,0,0,0-.75-2.48c-1.19-1.42-2.46-1.43-3.5.12a36.79,36.79,0,0,0-4,7.64c-3.22,8.58-8.23,16.06-14,23.07C41.83,222.12,41.4,223,40.31,222.84Z" transform="translate(-0.39)"/><path class="cls-16" d="M64.88,472.31l-.59.53c-5.56-3.62-9.82-8.59-14.26-13.4a97.18,97.18,0,0,1-9.3-11.83c-1.64-2.45-1.54-4.51.72-6.34,2-1.66,1.5-3.21.41-4.92-2-3.16-4.41-6.06-6.16-9.41a56.81,56.81,0,0,1-2.62-5.87c.36.31.87.55,1.06.95,2.53,5.37,6.34,10,9.17,15.15,1.37,2.51,1.1,3.31-1.41,4.85a2.49,2.49,0,0,0-1.11,3.63A36.1,36.1,0,0,0,47,454.71C52.73,460.8,57.93,467.46,64.88,472.31Z" transform="translate(-0.39)"/><path class="cls-11" d="M27.37,402.44a5.12,5.12,0,0,0-.06,6.15c.52.86,1.2,1.7,1,2.83-2-1.58-2.51-4-3.4-6.19.27-1.19-.77-1.15-1.4-1.5A177.13,177.13,0,0,0,9,388a17.52,17.52,0,0,1-5.75-12.6c-.15-2.69.11-5.59-1.37-8.11l.17-.14c1.46.11,1.68,1.23,1.91,2.35.55,2.74.64,5.53.94,8.3A11.92,11.92,0,0,0,8.17,385c4.82,5.09,10,9.88,14.26,15.44,1.17,1.51,2.33,1.28,3.73.75.31.44.67.79,1.27.64A.47.47,0,0,1,27.37,402.44Z" transform="translate(-0.39)"/><path class="cls-17" d="M89.21,482.6c3,1.15,4.84,3.77,7.13,5.82,1.83,1.64,3.3,3.67,5.61,4.77a2.67,2.67,0,0,1,1.24,2.2,2.8,2.8,0,0,1-2-.78c-4.19-3.87-8.34-7.77-12.51-11.66A.54.54,0,0,1,89.21,482.6Z" transform="translate(-0.39)"/><path class="cls-18" d="M121.91,93.14a15.9,15.9,0,0,1-.53,4.58c3.44-1.63,3.55-1.59,4.87,1.58a7.05,7.05,0,0,1,1,1.87,2.38,2.38,0,0,1-.07,2l-.07.06c-1.34-.15-1.71-1.38-2.23-2.27-.89-1.51-1.92-2-3.5-1.14C121.2,97.6,120,95.25,121.91,93.14Z" transform="translate(-0.39)"/><path class="cls-19" d="M89.21,482.6l-.48.35c-3.3-1.26-6.57-2.54-7.77-6.37-.26-.83-1-.9-1.79-.83-.13.22-.25.23-.36,0,.73-1.34,1.87-1.57,2.54-.25C83.08,478.92,86.26,480.6,89.21,482.6Z" transform="translate(-0.39)"/><path class="cls-20" d="M35.76,192.26c-1.49,2.2-3.76,1.49-5.54,2.13a.64.64,0,0,1-.86-.57c-.07-.48.27-.68.67-.82C31.81,192.35,33.58,191.67,35.76,192.26Z" transform="translate(-0.39)"/><path class="cls-21" d="M192.1,420.06a12,12,0,0,1,5.12-5.39,13.86,13.86,0,0,1-4.28,5.4A.54.54,0,0,1,192.1,420.06Z" transform="translate(-0.39)"/><path class="cls-16" d="M78.81,475.74h.36c-1.54,3.33-3.35,3.57-7.23,1l.48-.43C74.65,477.31,76.86,478.06,78.81,475.74Z" transform="translate(-0.39)"/><path class="cls-22" d="M65.73,188.19a2.84,2.84,0,0,1-3.38-2.39c1-1.16,1.34-2.89,3-4A6.49,6.49,0,0,1,64,185c-.3.53-1.39,1.34.17,1.78C64.46,187.54,65.26,187.68,65.73,188.19Z" transform="translate(-0.39)"/><path class="cls-23" d="M165.1,474.79c1.06-.52,0-1.83.92-2.42,1.61.58,1.2,2,.77,2.86S165.72,474.84,165.1,474.79Z" transform="translate(-0.39)"/><path class="cls-24" d="M14.93,267l2.41-4.31c.43-.06.6.22.7.57a7.52,7.52,0,0,1-2.4,4.31C15.22,267.56,15,267.32,14.93,267Z" transform="translate(-0.39)"/><path class="cls-25" d="M192.1,420.06h.84c-.73,1.22-1.22,2.69-3,2.8A4.19,4.19,0,0,1,192.1,420.06Z" transform="translate(-0.39)"/><path class="cls-26" d="M17.75,263.15l-.41-.51,1.89-3.29.81-.16A3.71,3.71,0,0,1,17.75,263.15Z" transform="translate(-0.39)"/><path class="cls-27" d="M126.71,77.79l-2,1a2,2,0,0,1,1-2Z" transform="translate(-0.39)"/><path class="cls-28" d="M23.48,403.73l2.05-.28c-.23.64-.44,1.21-.65,1.78Z" transform="translate(-0.39)"/><path class="cls-29" d="M14.93,267l.41.49c.52,1.33-.2,1.79-1.36,1.95l-.2-.07C14.16,268.53,14.54,267.74,14.93,267Z" transform="translate(-0.39)"/><path class="cls-30" d="M129.13,405.75c-1.41-.42-1.54.89-2.1,1.59a1.26,1.26,0,0,1-2,.22c-1.1-.83-1.55-1.66-1.19-2.39,1.87,1.35,3.22.72,4.36-1.05a12.5,12.5,0,0,1,4.07-3.65,3.35,3.35,0,0,1,3.42-.36c2.19,1.15,2,.09,1.67-1.52a18,18,0,0,0-2.07-5.81c-2.76-4.74-2.43-7.76,1.33-11.63a12,12,0,0,0,3.54-8.85c-.06-7.35,1.06-14.62,1.59-21.93.38-5.13,3.7-9.1,7-12.85,3.86-4.43,8.33-8.12,14-10.06l.48,1.39a39.22,39.22,0,0,0-18.31,17.43,13.49,13.49,0,0,0-1.4,5.74c-.56,7.84-1.18,15.67-1.91,23.49a12.06,12.06,0,0,1-4.08,7.64c-2.64,2.5-3,4.26-1.22,7.46a35.79,35.79,0,0,1,3,8.72,14.36,14.36,0,0,0,6.35,9.22c4.67,2.91,4.33,7.55,4,12.16s-3.88,5.86-7.27,7.33c-2.26,1-4.59,1.82-6.86,2.77a5.93,5.93,0,0,0-3.69,4.17c-1.41,6.71-4.12,13-5.74,19.69a8.84,8.84,0,0,0,.39,5.36c1.14,2.9,1.57,6,2.66,8.86.45,1.16.12,1.6-.8,2-1.32-4.5-3.62-8.68-4.2-13.44a12.17,12.17,0,0,1,.57-5.39c1.89-5.83,4-11.58,5.35-17.59a7.54,7.54,0,0,1,4.44-5.05c2.57-1.28,5.22-2.39,7.89-3.45a8.1,8.1,0,0,0,5.49-6.4,10.38,10.38,0,0,0,0-4.8,9.77,9.77,0,0,0-3.37-5.06c-1.95-1.76-3.91-3.5-5.79-5.32-3-2.87-4.73-3-7.78-.25C130.29,404.66,129.71,405.21,129.13,405.75Z" transform="translate(-0.39)"/><path class="cls-28" d="M130.5,481.05c.05-.31,0-.69.15-.92s.38,0,.47.22c.62,1.12.32,2.35.35,3.53.09,3.16.68,3.85,3.68,4.89a3.42,3.42,0,0,1,2.57,3.11c.25,5.15,2.66,8.68,7.68,10.25.54.54,1.16,1.05.49,1.89-5.2-1.3-8.88-3.88-9.32-9.86a4.31,4.31,0,0,0-3.68-4.14,2.42,2.42,0,0,1-1.93-2.19c-.65-1.75.16-3.61-.42-5.37Z" transform="translate(-0.39)"/><path class="cls-6" d="M130.54,482.46c1,1.73.25,3.58.42,5.37C129.76,486.12,130.42,484.27,130.54,482.46Z" transform="translate(-0.39)"/><path class="cls-31" d="M147.82,414.77a5.57,5.57,0,0,1,0,4.8Z" transform="translate(-0.39)"/><path class="cls-16" d="M70.43,475.25c-1.15-.6-2-1.27-.47-2.38A4.29,4.29,0,0,0,70.43,475.25Z" transform="translate(-0.39)"/><path class="cls-16" d="M75.35,455.66c0-1.16,0-2.31,0-3.47A3.13,3.13,0,0,1,75.35,455.66Z" transform="translate(-0.39)"/><path class="cls-32" d="M73.43,449.83a3.14,3.14,0,0,1-1-2.92A4.89,4.89,0,0,1,73.43,449.83Z" transform="translate(-0.39)"/><path class="cls-33" d="M176.12,291.87c-1.76-1-3.5.56-5.26,0-.16-.65.34-.82.76-1a18.75,18.75,0,0,1,2.77-.71c1.45-.39,3.09-.14,4.35-1.11s.54-2.7.84-4.05a7.1,7.1,0,0,1,5.23-5.63c2-.18,3.34-.89,3-3.21,1-5.25,2.06-10.48,3.35-15.65.69-2.76,0-4.62-2.23-6.18a24.42,24.42,0,0,1-3-2.42c-1.4-1.35-1.72-2.9-.6-4.52A128.33,128.33,0,0,0,194,232.28c1.45-1.14,1.6,0,1.77,1-1,4.47-3.35,8.25-5.88,11.94s-2.66,4.21.9,6.93c3.08,2.35,4.17,5,3.08,8.93-1.39,5-2.24,10.09-3.31,15.15-.53,2.53-1.79,4.37-4.39,5.16-3.22,1-3.59,3.7-3.83,6.48-.17,2.1-.55,4.07-3.32,4C178.05,292,177.06,292.66,176.12,291.87Z" transform="translate(-0.39)"/><path class="cls-12" d="M195.77,233.32c-.58-.15-.24-1.66-1.4-.95a2.07,2.07,0,0,1-.31-2.45c.81-2,.62-4.1.83-6.15a5.1,5.1,0,0,0-1.79-4.5c-2.27-2-2.38-4.34-1.17-6.94a31,31,0,0,1,5.93-9c3.15-3.17,3.87-6.63,2.31-10.71a1.87,1.87,0,0,1-.12-.94.82.82,0,0,1,.6-.38c1.81.4,1.29,2,1.63,3,.09.46.54.06.26.2-.58.29-.2-2.21.46-3l.64.06a8.13,8.13,0,0,0,0,2.36c1,3.51-.19,6.43-2.3,9.11A72.85,72.85,0,0,0,195,212c-1.23,2.17-1.5,4.09.63,6a6.94,6.94,0,0,1,2.2,5.37A23.15,23.15,0,0,1,195.77,233.32Z" transform="translate(-0.39)"/><path class="cls-34" d="M214.09,350.47l-.59,0c2.27-3,2.26-6.74,3.37-10.11,2.11-6.42,3.71-13,6.22-19.32.42.37.31.81.18,1.25-1.85,6.3-3.73,12.6-5.55,18.91-.67,2.28-1.18,4.6-1.86,6.88-.26.87-.24,1.94-1.21,2.48A.33.33,0,0,1,214.09,350.47Z" transform="translate(-0.39)"/><path class="cls-35" d="M229.93,300.06c1.52.57-.46,1.05,0,1.59-1.85,1.07-4,1.91-3.79,4.65a.39.39,0,0,1-.56,0c-1.92-2.6-1.81-3.1,1-4.55C227.68,301.17,228.81,300.62,229.93,300.06Z" transform="translate(-0.39)"/><path class="cls-36" d="M227,308.71c1,3.78-1.15,6.83-2.42,10.08-.23.32-.39.76-.93.48.75-3.58,2.82-6.81,2.83-10.58A.34.34,0,0,1,227,308.71Z" transform="translate(-0.39)"/><path class="cls-37" d="M176.12,291.87l2.9.09c-1.59.66-3.14,1.77-4.92.5Z" transform="translate(-0.39)"/><path class="cls-38" d="M223.62,319.27l.93-.48a3.93,3.93,0,0,1-1.28,3.46l-.18-1.25A2.83,2.83,0,0,1,223.62,319.27Z" transform="translate(-0.39)"/><path class="cls-39" d="M227,308.71l-.52,0-.9-2.39h.56A5.23,5.23,0,0,1,227,308.71Z" transform="translate(-0.39)"/><path class="cls-40" d="M166.67,308.18c.47.59.51,1.45-.18,1.5s-.29-.95-.45-1.47Q166.34,307.79,166.67,308.18Z" transform="translate(-0.39)"/><path class="cls-41" d="M166.67,308.18l-.63,0c-.29-.65-1-1.09-.89-1.94h.22A3.84,3.84,0,0,1,166.67,308.18Z" transform="translate(-0.39)"/><path class="cls-42" d="M165.37,306.27h-.22c-.86-.46-.57-1.2-.48-1.9H165Z" transform="translate(-0.39)"/><path class="cls-43" d="M143.06,499.73c-1.79-.88-2.34-2.47-2.46-4.31Z" transform="translate(-0.39)"/><path class="cls-44" d="M161.68,477.06c.08,1.64.09,3.25-1.35,4.43A13.24,13.24,0,0,1,161.68,477.06Z" transform="translate(-0.39)"/><path class="cls-45" d="M214.09,350.47l.56,0a2.66,2.66,0,0,1-1.54,2.74c0-.3-.05-.6-.08-.9C213.39,351.73,214.1,351.3,214.09,350.47Z" transform="translate(-0.39)"/><path class="cls-28" d="M27.33,401.81c-.66.34-1,.16-1-.6.38-2,.8-2.26,3-1.71,1,.95,2.05,1.92,3.61,1.86a12,12,0,0,0,3.33.28c3.09-.16,6-.12,9,1.46,3.57,1.89,9.53-.4,12-3.8,1.16-1.59,2.51-2.93,4.73-2.67,1.15.13,1.61-.42,1.65-1.5a15.24,15.24,0,0,1,.38-2.6,6.09,6.09,0,0,1,4.22-4.78c1.58-.55,3.15-1.15,4.67-1.85.21-.1.4-.23.61-.34.43-.24.82-.93,1.39-.39s.21,1.15-.12,1.69-.6.72-.88,1.09c-1,1.29-2.54,1.55-4,1.89-2.26.51-3.45,1.81-3.34,4.21a13.38,13.38,0,0,1-.18,2.61c-.53,3.14-.82,3.33-4,2.82a2.75,2.75,0,0,0-3.4,1.91c-.89,2.61-2.74,3.68-5.41,3.86-1.73.12-3.37.9-5.15.94a7.87,7.87,0,0,1-4.8-1.08,6.76,6.76,0,0,0-3.88-1c-2.23,0-4.46-.11-6.68-.17C31.08,403.38,29.53,401.72,27.33,401.81Z" transform="translate(-0.39)"/><path class="cls-46" d="M73.9,388c-.18-1,1-1.42.85-2.55l-1.35,1.05c-.3-3.21,0-6.18,2.35-8.78,4.67-5.11,9.51-10,14.65-14.7a19.19,19.19,0,0,0,6-9.31c.6-2.36.35-2.78-2-3.11-.73-.1-1.68.12-1.87-1,1.9.21,3.87-.63,5.71.87.88.71.76-1.08,1.45-1.35-.93,5.42-1.91,10.67-6.44,14.65-5.63,4.94-10.68,10.51-15.82,16-1.34,1.42-1.48,3.1-1.58,4.85C75.76,386,75.66,387.43,73.9,388Z" transform="translate(-0.39)"/><path class="cls-47" d="M71,416.18v31.74c-.5-.52-.37-1.18-.37-1.81q0-14.06,0-28.12C70.62,417.36,70.49,416.7,71,416.18Z" transform="translate(-0.39)"/><path class="cls-48" d="M27.33,401.81c2.49-.84,4,1,5.69,2.17a4.77,4.77,0,0,1-3.25-1.06,2.5,2.5,0,0,0-2.4-.48C27.35,402.23,27.34,402,27.33,401.81Z" transform="translate(-0.39)"/><path class="cls-16" d="M73.45,452.71a2.37,2.37,0,0,1,.07,2.81C73.49,454.58,73.47,453.65,73.45,452.71Z" transform="translate(-0.39)"/><path class="cls-49" d="M200.22,47.57c.73-1.09.25-2.32.38-3.49.11-.95-.36-2.48,1.17-2.35,1.23.1.75,1.57.72,2.43-.19,6.17-2.7,10.93-9,12.75-.88.25-2,.35-2,1.66-1,3-.09,5.57,1.85,7.76a12.68,12.68,0,0,1,3.32,7.52,3.16,3.16,0,0,0,2.61,3c2.59.72,5.14,1,7.67-.34,2.15-1.16,3.28-.65,3.7,1.78.58,3.3.85,6.64,1.5,9.92.83,4.21,2.95,7.9,5.17,11.52.78,1.27,1.73,1.76,3.2,1.14,4.56-1.92,9.23-3.56,13.69-5.71,2.27-1.1,3.48-2.5,3-5.25-.65-3.62.93-6.35,4.07-8.22,4-2.4,8.08-4.84,12.12-7.26,1-.32,2.38-1.56,2.4.88-3.66,3.87-8.69,5.71-13,8.68a8.41,8.41,0,0,0-2.29,2,4.56,4.56,0,0,0-.3,3.38,6.51,6.51,0,0,1-.2,3.93,7.61,7.61,0,0,1-4.18,4,82.5,82.5,0,0,1-10.35,4.35c-4.42,1.32-7.47,3.76-9,8.1a11.69,11.69,0,0,1-.92,1.65c-.93.39-.76,1.74-1.78,2a1.71,1.71,0,0,0-.49,2.8,1.3,1.3,0,0,1-.07.95,3.58,3.58,0,0,1-.38.55c-1.24,1.49.09,3.6-1.26,5.18-1.23-.19-.71-2.19-2.13-2.12-7-3.71-13.92-7.47-19.54-13.22A6.19,6.19,0,0,1,188,103a54.93,54.93,0,0,1,.78-7.13c.39-2.83-.23-4.08-2.78-5.43-1.86-1-3.95-1.28-5.87-2.06-.89-.36-2.12-.44-2-1.89a2,2,0,0,1-1-2.88c5,.28,9.82,1.48,13.83,4.55C193.36,90,193.74,93,193.4,96c-.17,1.51-.54,3-.82,4.49a5.5,5.5,0,0,0,2.13,5.74A102.15,102.15,0,0,0,207,114.59c2.23,1.25,2.64,1,3.22-1.41a17,17,0,0,1,2.88-5.75c2.31-3.27,2.1-5.05,0-8.5a34.27,34.27,0,0,1-5-15.86c-.16-2.92-.39-3-3.37-2.55a13.13,13.13,0,0,1-8.32-1.6,5.66,5.66,0,0,1-3-4.68,12.42,12.42,0,0,0-2.95-6.67c-2.32-2.83-3.26-6-1.94-9.63a4.27,4.27,0,0,1,2.88-3c4-.9,6.82-3,8.23-6.91A1,1,0,0,1,200.22,47.57Z" transform="translate(-0.39)"/><path class="cls-50" d="M209.76,120.52c2.07-.74,1,1.4,1.67,2,.8-1.8-.81-4,1.17-5.37,1,1.63.07,3.28,0,4.92-.47,3.7-2.79,6.39-5.13,9-2.79,3.09-5,6.58-7.66,9.8a2.77,2.77,0,0,0-.41,2.91c.77,2.07,2.22,3.68,3.38,5.48a1.46,1.46,0,0,0,1.47.64c2.52-.41,5.09,1,7.64-.52,1.48-.88,3.07.23,4.51.9-1.37,1-2.92.36-4.37.45s-2.12.37-1.37,1.88c-5.09,1.47-9.86.43-13.24-5.59-1-1.82-2.66-1.9-4.37-1.45-2,.52-4,1.21-5.93,1.83a1.11,1.11,0,0,1-1.2.22l-.24-.22c0-.71,3.54-.52.48-2.07-.85-.43,0-1,.49-1.29s1.2-.21,1.77-.44a13,13,0,0,0,8.18-5c3.94-5,7.81-10.13,11.93-15C209.37,122.61,209.31,121.51,209.76,120.52Z" transform="translate(-0.39)"/><path class="cls-51" d="M255.76,75.31c-.36-1.49-1.53-.78-2.4-.88A7.88,7.88,0,0,1,257.69,72a1.69,1.69,0,0,0,1.6,1.07C258.47,74.38,257.54,75.51,255.76,75.31Z" transform="translate(-0.39)"/><path class="cls-52" d="M213.56,113.32c1-.29.45-2.16,2-1.88q-1,3.33-2.06,6.66c-.83,0-.68-.45-.42-.94v-1C212.25,115.08,212.81,114.19,213.56,113.32Z" transform="translate(-0.39)"/><path class="cls-53" d="M240,93.29c-.16-1.66.1-3.32-.38-5A2.37,2.37,0,0,1,240.5,86a13,13,0,0,0,.29,4.47A2.93,2.93,0,0,1,240,93.29Z" transform="translate(-0.39)"/><path class="cls-54" d="M213.06,117.16l.42.94a11,11,0,0,1-.84,4c0-1.64,0-3.28,0-4.92Z" transform="translate(-0.39)"/><path class="cls-6" d="M117.06,160.28l-1-.87c3.6-2.31,6.24-2.08,9.19.79l2.2,2.2c.76.75,1.74,1.6,2.71,1.27,4.65-1.6,9.21,1.75,13.86.1,1.39-.49,2.33.6,3.15,1.67,1.78,2.3,4,2.28,5.92.15,1.49-1.65,3.24-2.91,5.66-2.08a2.16,2.16,0,0,0,2-.32q10.54-6.9,21.06-13.84a4.76,4.76,0,0,0-.31,1.13c0,.78-1.2,1.89-.08,2.24s1.41-1,1.88-1.95c.6-1.2-.15-3.47,2.34-3.36h0c.76,1,.29,2,0,3a9.82,9.82,0,0,1-5.24,4.66c-3.89,1.33-7.33,3.5-10.93,5.38-2.58,1.34-5.4,2.18-7,4.94a2.77,2.77,0,0,1-2.84.92,4.88,4.88,0,0,0-4.33,1.46c-3.46,3-6.25,3-9.81.1a3.6,3.6,0,0,0-3.36-.67,11.41,11.41,0,0,1-7.27-.51,8,8,0,0,0-4.93-.46,4.41,4.41,0,0,1-4.35-1.34c-1.73-1.69-3.46-3.26-6.14-3.34C118.69,161.57,117.88,160.74,117.06,160.28Z" transform="translate(-0.39)"/><path class="cls-55" d="M200.6,191.56l-.49,0a2.88,2.88,0,0,0-.4.09c-4.67.23-9.34,0-14,.15a8.72,8.72,0,0,1-4.78-3.58,24.94,24.94,0,0,0-6.55-7.55,2.48,2.48,0,0,0-3.26-.1,27,27,0,0,1-8.52,4.26,3.12,3.12,0,0,0-2.07,1.87,6,6,0,0,1-3.86,3.33,11.52,11.52,0,0,0-3.59,1.88c-1.44,1.2-2.86,1.95-4.79,1.16-1-.39-1.65.3-2.23,1-2,2.41-4.51,2.78-7.36,2-3.34-.88-4.5-.41-6.38,2.51-.31.47-.56,1-.87,1.43-1.61,2.36-2.65,2.5-4.68.48s-4.15-.75-6.26-.3c-1.17.55-1.15,2.61-3,2.36A6.84,6.84,0,0,1,128,197.26c1.17.7,1.53.75,2.36-.35,3.33-4.47,3.95-4.68,9.27-3.17a3.75,3.75,0,0,0,4.78-2.1c1.21-2.23,2.78-2.67,4.89-1.35a1.44,1.44,0,0,0,2-.16,10.23,10.23,0,0,1,4.79-2.57,3,3,0,0,0,2.18-2.06,4.39,4.39,0,0,1,3.62-3.08,22.18,22.18,0,0,0,8.42-4.44,3.53,3.53,0,0,1,4.93,0c3.17,2.51,6,5.22,7.77,9a4.68,4.68,0,0,0,4.78,2.84c4-.07,8-.58,11.91.31.55.63,1.41-.05,2,.46C201.77,191.41,201,191.3,200.6,191.56Z" transform="translate(-0.39)"/><path class="cls-56" d="M117.55,202.61c1.35-.5,1.47-2,2.38-2.89,1,.55.68,1.37.31,2.06-2.64,4.83-4,10.23-6.6,15.09-1.28,2.37-1.86,2.82-4.5,2.44a53.37,53.37,0,0,0-7.15-.19,16.42,16.42,0,0,1-6.7-1.54c-.85-.39-1.82-.76-1.82-2l1.24-.11c-.54-.62-1.91-.59-1.17-1.82,3.45,2,7.06,3.23,11.12,2.53a2.12,2.12,0,0,1,.71,0c2.33.49,4.65.88,6.17-1.61,1.19-1.94,2.73-3.67,2.71-6.23A6.53,6.53,0,0,1,117.55,202.61Z" transform="translate(-0.39)"/><path class="cls-57" d="M200.6,191.56l1-.95a1.12,1.12,0,0,1,.49-.45l.45-.54a3.21,3.21,0,0,1,.5,1.95c-.72,1-.36,2.26-.57,3.58C201.61,193.89,202,192.28,200.6,191.56Z" transform="translate(-0.39)"/><path class="cls-58" d="M185.75,150.45c0-1,0-2,0-3h1.43C186.66,148.42,186.63,149.63,185.75,150.45Z" transform="translate(-0.39)"/><path class="cls-59" d="M67.59,194.9a2.34,2.34,0,0,1-.06-2.81A2.34,2.34,0,0,1,67.59,194.9Z" transform="translate(-0.39)"/><path class="cls-7" d="M202.05,190.16l-.49.45c-.61-.26-1.51.6-1.9-.49Z" transform="translate(-0.39)"/><path class="cls-60" d="M240.89,30.28a3.28,3.28,0,0,1,1.19,3.55,9.82,9.82,0,0,0,3.5,9.62,11.22,11.22,0,0,1,1.73,1.64c.68.92,1.14,1.95.39,3.09s-1.68.5-2.56.25a5.36,5.36,0,0,0-6.34,3.31c-.48,1.33-.1,2,1.32,2,1.23,0,2.37.21,2.41,1.67s-.3,2.75-1.91,3.24a3.91,3.91,0,0,1-1.85.34c-4.71-1.24-9.68-2.22-11.7-7.53-.89-2.35-2.14-3-4.56-2.24s-3,.08-3.23-2.31a11.61,11.61,0,0,1,1.59-6.41c1.54-2.93,1-4.31-2-5.64-5.16-2.29-5.27-2.53-3.18-7.82.35-.88.79-1.71,1.19-2.57,1.82-1.28,3.54-2.69,5.87-3,1.15-.16,1.59-1.15,2.05-2.13,1.37-2.85,3.95-3.85,6.86-3.91a4.53,4.53,0,0,1,4.6,3.48,8,8,0,0,0,3.25,4.81c1.51,1,1.73,2.61,1.32,4.27C240.66,28.81,240.28,29.54,240.89,30.28Z" transform="translate(-0.39)"/><path class="cls-61" d="M240.89,30.28c-1-.51-.88-1.27-.61-2.22a3.5,3.5,0,0,0-1.72-4.47,5,5,0,0,1-2.39-3.7,4.62,4.62,0,0,0-4.19-4c-2-.35-5.83,1.21-6.38,2.94a4.56,4.56,0,0,1-4.4,3.57c-1.63.15-2.51,2.08-4.29,2.08a5.89,5.89,0,0,1,4.1-3,5.31,5.31,0,0,0,3.61-2.74A7.67,7.67,0,0,1,232.06,15c2.89.17,4.2,2.26,5,4.77a4.33,4.33,0,0,0,1.41,2.44C241.54,24.23,242.5,26.84,240.89,30.28Z" transform="translate(-0.39)"/><path class="cls-2" d="M93.47,215.61c2.64,2.22,5.8,2.81,9.12,2.9,2.6.07,5.22-.59,7.81.39,1,.4,1.77-.35,2.25-1.29,2.77-5.46,4.32-11.46,7.43-16.77.15-.26-.09-.74-.15-1.12a14.18,14.18,0,0,1,4.41-.93,3,3,0,0,1,3.18,1.66c1.08,2.06,2.11,1.16,3,0,.72-.94,1.21-2.06,1.89-3,1.59-2.31,3.1-2.87,5.74-2,3.22,1.07,6,.77,7.92-2.36a1.64,1.64,0,0,1,2.63-.54,2.15,2.15,0,0,0,3.17-.38,7.47,7.47,0,0,1,3-2c2.47-.94,5-1.74,5.7-4.78a1.77,1.77,0,0,1,1.5-1.06c3.4-.61,6.19-2.47,8.94-4.4a2.49,2.49,0,0,1,3.58.15c2.79,2.43,5.43,5,7.07,8.32.78,1.61,2.63,1.8,3.62,3.07a128.72,128.72,0,0,1,14.83.14h0a8.47,8.47,0,0,1-.7,10.89,40.06,40.06,0,0,0-6.72,9.8c-1.53,3.19-1.41,4.31,1.09,6.76,1.56,1.54,1.84,3.31,1.8,5.39-.07,2.73-1.1,5.26-1.21,8a75.13,75.13,0,0,1-8,14.66c-1.68,2.44-1.49,3.46.83,5.19.26.19.53.35.8.53,3.4,2.17,5.11,4.71,3.65,9.15-1.57,4.74-2.25,9.77-3.32,14.67,0,2.1-1.67,2.62-3.19,3.27-4,1.74-5,3.23-4.83,7.41.11,2.19-1.17,2.87-3,3.17-2.17.35-4.42.36-6.41,1.48-1.24.05-1.8,1-2.21,1.92a50.7,50.7,0,0,1-4.47,7.64,7.22,7.22,0,0,1-6.19,3.46c-7.61.33-15.11-1.32-22.71-1.06a2.89,2.89,0,0,1-2.46-1.31,64.64,64.64,0,0,0-6.49-7.34,3.32,3.32,0,0,1-1-3c.6-4-.82-6.71-4.57-8.16-3.5-1.37-7-2.49-9.75-5.34-1.56-1.61-3.89-1.27-5.83-.18-3.79,2.1-7.73,1.54-11.69.83-1.13-.21-1.52-1-1.49-2.1.08-3.18,0-6.28,1-9.44s.36-6.43,1.28-9.61c.38-1.34.72-2,2.13-2.32a4.72,4.72,0,0,0,3.45-5.69c-.47-1.74-1.47-2.31-3.22-1.8-3.44,1-3.59.94-5.25-2.12A4.54,4.54,0,0,0,88.75,244a3.37,3.37,0,0,1-2.48-3.86c.21-3,.37-6,.57-9.08a7.2,7.2,0,0,0-.62-3.74c-1.79-3.57-2-7.53-3-11.3-.29-1.08,0-1.58,1.06-1.91,2.45-.74,4.8-1.19,7,.68A3.16,3.16,0,0,0,93.47,215.61Z" transform="translate(-0.39)"/><path class="cls-2" d="M92.52,349.53c.61.56,1.35.37,2.06.39,2.79.07,3.27.73,2.57,3.51-1.2,4.7-4.24,8.15-7.72,11.26-5.05,4.53-9.61,9.53-14.27,14.44-1.25,1.31-.71,3-1.2,4.52a23.92,23.92,0,0,0-.56,2.8c-1.26.5-2.5,1.05-3.78,1.49-4.1,1.39-5.23,2.78-5.25,7.14,0,2-.37,2.82-2.6,2.2s-3.2,1.05-4.13,2.56c-2.35,3.82-9.86,5.87-13.74,3.48a6.88,6.88,0,0,0-4.9-1.1,12.08,12.08,0,0,1-6.38-.41A18.57,18.57,0,0,1,29.27,400c-1.54-.88-2.36-.05-3,1.26-2.4,2.09-2.47,2.07-4.35-.48A90.38,90.38,0,0,0,9.87,387.79C5.42,383.75,4,379,3.7,373.35c-.11-2.12.38-4.56-1.7-6.19A8.25,8.25,0,0,1,2,361.53,110.6,110.6,0,0,0,6.23,340c.14-1.46.82-2,2.29-2.15,3.34-.28,6.26,1,9.24,2.15,4.36,1.71,5,1.56,7.44-2.3,1-1.61,2.26-2.29,4-1.31a1.8,1.8,0,0,0,2.37-.1A1.74,1.74,0,0,0,32,334.1c-.77-1.61,0-2.71,1-3.87a49,49,0,0,1,11.84-9.65,8.67,8.67,0,0,1,7.11-1.05,12,12,0,0,0,8-.52c2.75-1.13,5.08-1.15,6.95,1.53a2.26,2.26,0,0,0,1.77,1.11c2.47,2.46,4.32,5.5,7.42,7.37,1.27.77,1.09,2.13.06,3.06-1.63,1.49-1.46,3-.43,4.68a88.5,88.5,0,0,1,6.11,12.15c.57,1.37,1.33,2.64,3.13,2.39s3.62-.28,3.9-2.68c.07-.54.27-1.18.91-1.24s.62.64.87,1A2.15,2.15,0,0,0,92.52,349.53Z" transform="translate(-0.39)"/><path class="cls-2" d="M69.15,320.18l-.43-.56c-2.43-3.54-5.37-4.47-9.36-2.36-2.23,1.18-4.89.89-7.31.44a11.8,11.8,0,0,0-8.27,1.56,51.76,51.76,0,0,0-12.55,10.29.84.84,0,0,0-.15.18c-1,2.4-1.74,4.8-5.23,4.73-1.28,0-1.89,2-2.64,3.22a2.65,2.65,0,0,1-3.62,1.24c-3.56-1.29-6.89-3.42-10.95-3-.89.09-1.12-.76-1.1-1.54,0-1.52.12-3,.18-4.55a12.55,12.55,0,0,0,.62-6.08c-.37-2,.1-4,.18-5.95a82.68,82.68,0,0,0-.27-9.57c-.09-1.21-.88-2.82.87-3.6,1.94-.86,3.94-1.42,5.94-.13.4.26.74.6,1.14.88,3.41,2.37,6.12,1.59,7.91-2.28.27-.57.41-1.2.65-1.79a5.15,5.15,0,0,1,6.09-3.37c3.19.56,4.35,0,5.7-2.92.51-1.09,1.07-2.15,1.54-3.25.68-1.58,1.31-2.66,3.26-1.18,1.24.93,2.4-.15,3.34-1.06A56.59,56.59,0,0,1,52.61,283c4.2-2.81,8.75-3.21,13.53-2.09a4.25,4.25,0,0,1,2.74,1.79,9.2,9.2,0,0,0,2.54,2.51c2.75,2.55,5.74,3.24,9.63,2.66a80.92,80.92,0,0,1,17.4-.35c2.68.18,5.43-.75,8,.42,2.19.63,3-.41,2.92-2.44a7.69,7.69,0,0,1,.13-2.15c.28-1,.92-1.79,2.1-1.06,2.55,1.57,5.47,2.19,8.21,3.27,3.27,1.29,4.26,3,3.63,6.52a4.08,4.08,0,0,0,1.42,4.07,25,25,0,0,1,4.67,5.12,8.68,8.68,0,0,0,8.8,4.13c.86-.09,2.07-.67,2.59.44s-.66,1.83-1.28,2.6a12.86,12.86,0,0,1-3.37,2.67,26.2,26.2,0,0,0-2.9,1.89c-2.32,1.56-4.66,3.1-7,4.69a14.08,14.08,0,0,0-5,5.12c-2.23,4.65-6.19,7.18-10.53,9.36-1.14.58-2.29,1.13-3.43,1.72a10.73,10.73,0,0,0-5.45,6.08,42,42,0,0,1-2.16,4.55c-1.64,3.2-3,3.87-6.53,3.46-1.21-.15-1.28-1-1.56-1.82-.79-2.31-1.54-2.48-3.18-.61a16.74,16.74,0,0,0-1.56,2.4,2.9,2.9,0,0,1-2.36,1.45c-1.23.07-1.13-1.08-1.51-1.82-1.88-3.62-3.38-7.43-5.62-10.85a3,3,0,0,1,0-3.91c1.84-2.52,1.65-3.56-.82-5.35C73.9,325.37,71.92,322.37,69.15,320.18Z" transform="translate(-0.39)"/><path class="cls-2" d="M14,269.39a2.71,2.71,0,0,0,1.36-1.95,20.79,20.79,0,0,0,2.41-4.29l2.3-4a1,1,0,0,0,.14-.35,9.53,9.53,0,0,0,2.2-2.95c.39-.6.81-1.18,1.17-1.8,1.15-1.94,2.61-2.35,4.58-1.12a10.63,10.63,0,0,0,10.11.63,26.81,26.81,0,0,1,20.91-.26c4.31,1.72,9.09,1.57,13.68,2,5.39.5,10.81.73,16.23,1,2.25.11,3.24,1.2,3,3.36q-.72,6-1.61,12.07a33,33,0,0,0-.17,7.16c.11,1.62.73,2.84,2.78,2.07a3.26,3.26,0,0,1,2.09.29,12.13,12.13,0,0,0,9.52-.72,6.37,6.37,0,0,1,4.53-.49c-.58,1.2-1.38,2.15-1.27,3.43.2,2.29-.92,3.09-3.06,2.49a8.53,8.53,0,0,0-4,.1c-7.49,1.49-15.17,0-22.66,1.45-2,.39-3.42-.63-4.62-2a33.76,33.76,0,0,1-3-3.69c-.9-2.64-2.93-3.53-5.47-3.23a26.81,26.81,0,0,1-5.94,0,8.31,8.31,0,0,0-5.87,1.58c-3.31,2.36-6.89,4.37-9.56,7.55a1.68,1.68,0,0,1-2.53.29c-1.92-1.34-3.15-.35-4.07,1.3s-1.66,3.27-2.47,4.92a2.59,2.59,0,0,1-3.15,1.51,8.09,8.09,0,0,0-8.84,4.84A12,12,0,0,1,21.49,303c-1,1.44-2.3,1.92-3.88.72-.76-.57-1.58-1.09-2.38-1.61a3.7,3.7,0,0,0-4.62,0c-2.17,1.51-2.77,1-3-1.59C6.64,289.44,9.45,279.24,14,269.39Z" transform="translate(-0.39)"/><path class="cls-2" d="M40.31,222.84c6.21-7,11.53-14.62,15-23.41a51.74,51.74,0,0,1,4.38-8.74c.62-1,1.11-2.43,2.61-1.93a3.86,3.86,0,0,1,2.91,3.17c.12.86,0,1.75.1,2.62.19,2.32,1.1,4,3.5,4.88a10.14,10.14,0,0,1,5.42,4.13,2.35,2.35,0,0,0,2.08,1.38c2.14,1.76,4.86,2.4,7.22,3.73.92.51,2,1,1.88,2.22s-1.26,1.55-2.26,1.77c-2,.42-2.43,1-1.92,3.42,1.37,6.47,4.93,12.56,3.75,19.53-.25,1.49-.46,3-.62,4.49-.24,2.4.57,4.28,2.91,5.19a6.21,6.21,0,0,1,3.3,3c1.26,2.28,2.92,2.94,5.4,2.27.82-.22,1.72-.88,2.22.34a2.25,2.25,0,0,1-.89,2.95,5.76,5.76,0,0,1-3.63,1.06c-5-.58-10.07,0-15-.69-8.68-1.16-17.47-1.6-25.88-4.46-3.67-1.25-7.42-.25-11,.9-1.82.58-3.68,1.08-5.45,1.78-2.95,1.18-5.45.09-8-1.28-1.14-.62-1.24-1.32-.41-2.27a22.06,22.06,0,0,0,4.51-8.92C34,233.75,37.34,228.38,40.31,222.84Z" transform="translate(-0.39)"/><path class="cls-62" d="M70.51,281.84a15.22,15.22,0,0,1,3.11,2.94c1.56,1.65,3.15,2.72,5.66,1.92,3.07-1,6.32-.46,9.49-.58s6.21.15,9.31-.35a3.25,3.25,0,0,1,2.76.31l-1.9.9a9,9,0,0,0,3.72-.13,3.22,3.22,0,0,1,3.83,1.07c-4.62,0-9.26-.22-13.85.18s-9.12-.65-13.67.73c-3.06.93-5.91-.77-7.55-3.64.47.09,1.33.44.64-.56A6.28,6.28,0,0,1,70.51,281.84Z" transform="translate(-0.39)"/><path class="cls-63" d="M22.39,255.89c-.12,1.44-.64,2.58-2.2,2.95A5.11,5.11,0,0,1,22.39,255.89Z" transform="translate(-0.39)"/><path class="cls-64" d="M133.41,313a3.07,3.07,0,0,1,2.9-1.89A3.59,3.59,0,0,1,133.41,313Z" transform="translate(-0.39)"/><path class="cls-2" d="M209.76,120.52a2.36,2.36,0,0,1-.34,3c-4.16,5.1-8.2,10.31-12.31,15.46-2.31,2.91-5.15,4.91-9,5.15-1.43-.9-.93-2.2-.71-3.44a7.17,7.17,0,0,0-3.51-7.89c-.68-.43-1-1.4-1.5-2.14a16.92,16.92,0,0,0-11.2-7.83c-6.85-1.44-13.72-3-19.85-6.73a46.33,46.33,0,0,1-8.94-7.18,19.09,19.09,0,0,0-10.85-5.6c-1.24-.19-1.6-.68-1.53-1.86a12.52,12.52,0,0,1,3.87-8.74c2.11-2,3.91-1.87,6.31.25,1.2,1.07,2.32,3,4.21,1.58s1.34-3.34.53-5.19a13.67,13.67,0,0,1-.78-2.5c-1.11-5.06-4.09-7.55-9.19-7.66-3.57-.07-4.94-1.17-5.87-4.7a25.78,25.78,0,0,0,7-8,5,5,0,0,1,5.79-2.33c6.08,1.46,12,3.2,16.95,7.33,2.56,2.13,4.11,5.06,6.17,7.59,1.41,1.73,2.75,3.52,4.92,4.41a1.1,1.1,0,0,1,1.34.61A8.55,8.55,0,0,0,178,86.44c1.07,1.56,2.93,1.37,4.43,2,1.32.55,2.72.9,4,1.51,2.67,1.28,3.43,2.86,3,5.81a48,48,0,0,0-.9,7.57,4.69,4.69,0,0,0,1.63,3.78c4.62,4.17,9.42,8.07,15.1,10.76A51.18,51.18,0,0,1,209.76,120.52Z" transform="translate(-0.39)"/><path class="cls-65" d="M187.4,140.69c.41,1.11,0,2.39.71,3.43-.51.67-1,0-1.42-.07C187,142.93,186,141.57,187.4,140.69Z" transform="translate(-0.39)"/><path class="cls-66" d="M127.19,101.37a1.69,1.69,0,0,1-.94-2.07l1.33.06.06,2C127.51,101.55,127.36,101.58,127.19,101.37Z" transform="translate(-0.39)"/><path class="cls-67" d="M127.19,101.37a3.06,3.06,0,0,1,.45-.06c.18.72,1.18,1.62-.45,1.91C126.67,102.61,127.14,102,127.19,101.37Z" transform="translate(-0.39)"/><path class="cls-2" d="M200.22,47.57a9.15,9.15,0,0,1-6.72,7.37c-4.64,1.47-6.3,5.77-3.94,10.14A15.08,15.08,0,0,0,191.62,68,9,9,0,0,1,194,73.4c.4,3.67,1.62,5,5.17,6,2.33.64,4.65,1.14,7,.25,1.87-.71,2.64.37,2.61,2-.1,5.42,1.55,10.36,3.81,15.18a9.39,9.39,0,0,0,1.18,2.06c2.19,2.67,2.44,5.32.47,8.09-1.78,2.51-3.37,5-3.71,8.16-.19,1.76-1.54,1.19-2.58.69a71.46,71.46,0,0,1-9.92-6.27,3.47,3.47,0,0,0-.38-.29c-5.53-2.7-6.68-6.88-5-12.67,1.4-5-1-8.53-5.93-10.12-3.17-1-6.39-1.9-9.59-2.84-5.79-1.27-8.94-5.71-12.17-10.08-5.39-7.31-13-10.7-21.7-12-.79-.12-1.68-.13-2-1s.34-1.45.85-2.06a48,48,0,0,1,13.44-10.6,56.51,56.51,0,0,0,10.42-7.2c5.52-5,12.16-6.65,19.33-7,2.59.93,5.31,1.45,7.83,2.64C197.84,38.57,201.48,41.49,200.22,47.57Z" transform="translate(-0.39)"/><path class="cls-68" d="M171.22,84.12l-1.34-.61c0-.67.42-.7.9-.44S171.92,83.41,171.22,84.12Z" transform="translate(-0.39)"/><path class="cls-69" d="M95.15,162.45c.86-.23,1.27,0,1.53.6C96,163.48,95.53,163.19,95.15,162.45Z" transform="translate(-0.39)"/><path class="cls-70" d="M185.1,279.84c1-1.11,2.63-1.68,3.19-3.27C188.46,278.9,187.79,279.59,185.1,279.84Z" transform="translate(-0.39)"/><path class="cls-71" d="M29.27,400a4.79,4.79,0,0,1,3.35,1.86A3.17,3.17,0,0,1,29.27,400Z" transform="translate(-0.39)"/><path class="cls-50" d="M213.56,113.32c-.17,1-.34,1.93-.5,2.89-2.26-.55-.33-1.8-.41-2.7C212.62,113.06,213,112,213.56,113.32Z" transform="translate(-0.39)"/><path class="cls-7" d="M200.12,191.58c-4.94,0-9.89.22-14.83-.14A53,53,0,0,1,200.12,191.58Z" transform="translate(-0.39)"/><path class="cls-2" d="M244.77,45.5A9.25,9.25,0,0,0,238.22,49c-2.45,3.24-2.22,4.66,1.52,7.44-.22.7-.84.69-1.35.61-4.3-.76-7.95-2.69-9.84-6.76-1.15-2.49-2.6-3.7-5.32-3.21-2.08.36-2.59-.49-2-2.41a15.85,15.85,0,0,1,1.54-3.74c1.71-2.81,1.29-4.76-1.39-6.66-.32-.23-.7-.38-1-.61-1.3-.88-3.93-.51-3.72-2.71.25-2.71,1.4-5.3,4.1-6.65a9.9,9.9,0,0,1,2.95-.91,3.13,3.13,0,0,0,3-2.51,4.19,4.19,0,0,1,3.63-3.07,3.19,3.19,0,0,1,3.78,1.74c1.22,2.32,2.37,4.72,4.55,6.37a1,1,0,0,1,.35,1.47c-1,1.54-.32,2.82.38,4.24a7.35,7.35,0,0,1,.87,3.44A13,13,0,0,0,244.77,45.5Z" transform="translate(-0.39)"/></g></g></svg>